<svg width="21" height="21" viewBox="0 0 21 21" fill="none" xmlns="http://www.w3.org/2000/svg">
<path d="M16.9085 13.4626C16.9686 13.8502 16.8417 14.0144 16.7135 14.0144C16.5852 14.0144 16.3995 13.8567 16.1925 13.544C15.9854 13.2313 15.9146 12.8836 16.0148 12.7053C16.0525 12.6435 16.1134 12.5982 16.1848 12.5787C16.2562 12.5592 16.3326 12.5671 16.3982 12.6006C16.7389 12.7247 16.8725 13.23 16.9085 13.4626ZM15.0209 14.3129C15.431 14.6476 15.5552 15.0456 15.3388 15.326C15.2729 15.4044 15.1889 15.4667 15.0935 15.508C14.9982 15.5493 14.8941 15.5684 14.7898 15.5638C14.5609 15.5641 14.3392 15.4868 14.1632 15.3454C13.7918 15.0313 13.6823 14.5209 13.9254 14.2315C13.9791 14.172 14.0462 14.1253 14.1214 14.0949C14.1967 14.0644 14.2782 14.051 14.3596 14.0557C14.6044 14.0636 14.8386 14.1546 15.0209 14.3129ZM14.3369 17.5435C16.099 17.5435 18.0107 18.1276 20.1281 19.9419C20.3392 20.1228 20.621 19.8979 20.4367 19.6718C18.3567 17.1325 16.4289 16.6479 14.5146 16.2396C12.1687 15.7382 10.961 14.4602 10.1154 13.0581C9.94841 12.779 9.87226 12.8281 9.85756 13.1873C9.84352 13.7198 9.88515 14.2524 9.9818 14.7768C9.88695 14.7768 9.79077 14.7768 9.69592 14.7768C8.49372 14.7768 7.31852 14.4319 6.31893 13.7859C5.31934 13.1398 4.54025 12.2215 4.08019 11.1471C3.62013 10.0728 3.49976 8.89056 3.73429 7.75001C3.96883 6.60947 4.54775 5.5618 5.39783 4.73951C6.24791 3.91723 7.33098 3.35724 8.51008 3.13037C9.68917 2.9035 10.9113 3.01994 12.022 3.46496C13.1327 3.90998 14.082 4.66359 14.7499 5.6305C15.4178 6.59741 15.7743 7.73419 15.7743 8.89709C15.7749 9.12548 15.762 9.35372 15.7356 9.58068C15.0952 9.50268 14.4481 9.49099 13.8052 9.54579C13.5741 9.56517 13.6075 9.67501 13.7811 9.69957C15.785 10.0498 17.1717 11.2503 17.487 13.4406C17.4881 13.4517 17.4928 13.4622 17.5005 13.4705C17.5081 13.4789 17.5183 13.4847 17.5295 13.4871C17.5408 13.4895 17.5525 13.4885 17.5631 13.4841C17.5737 13.4797 17.5826 13.4721 17.5885 13.4626C18.6309 11.777 19.0673 9.8051 18.8296 7.85445C18.5919 5.90381 17.6935 4.0841 16.2745 2.67916C14.8555 1.27423 12.9957 0.36307 10.9852 0.087805C8.97472 -0.18746 6.92658 0.188649 5.16024 1.15747C3.3939 2.12628 2.0087 3.63333 1.2207 5.44354C0.432693 7.25376 0.286196 9.26535 0.804056 11.1645C1.32192 13.0637 2.47502 14.7438 4.08349 15.9425C5.69197 17.1413 7.66538 17.7915 9.69592 17.7916C11.0385 17.7955 12.3758 17.5422 14.3369 17.5422V17.5435Z" fill="#3E9CDC"/>
</svg>
