<?xml version="1.0" standalone="no"?>
<!DOCTYPE svg PUBLIC "-//W3C//DTD SVG 20010904//EN"
 "http://www.w3.org/TR/2001/REC-SVG-20010904/DTD/svg10.dtd">
<svg version="1.0" xmlns="http://www.w3.org/2000/svg"
 width="442.000000pt" height="442.000000pt" viewBox="0 0 442.000000 442.000000"
 preserveAspectRatio="xMidYMid meet">
<metadata>
Created by potrace 1.14, written by Peter Selinger 2001-2017
</metadata>
<g transform="translate(0.000000,442.000000) scale(0.100000,-0.100000)"
fill="#000000" stroke="none">
<path d="M1 2210 l0 -1300 930 0 c874 1 929 2 920 18 -4 9 -6 22 -4 29 2 6 0
14 -5 17 -5 3 -8 -8 -6 -25 2 -16 0 -28 -4 -25 -4 2 -8 111 -7 241 0 185 3
238 13 244 11 7 10 10 -3 15 -9 3 -280 6 -601 6 -396 0 -584 3 -584 10 0 7 -7
7 -22 0 -21 -10 -21 -10 2 10 17 15 21 23 13 27 -7 2 -13 9 -13 14 0 6 5 7 11
3 7 -4 10 -1 7 7 -3 8 -11 14 -19 14 -20 0 -20 44 1 55 21 11 23 57 3 64 -16
6 -14 -24 2 -37 6 -5 4 -7 -5 -4 -22 6 -20 53 3 49 9 -2 17 2 17 8 0 5 -4 10
-10 10 -5 0 -10 5 -10 11 0 5 4 8 8 5 5 -3 9 12 9 34 0 24 -5 41 -14 44 -16 6
-14 -24 2 -37 6 -5 4 -7 -5 -4 -22 6 -20 53 3 49 9 -2 17 2 17 8 0 5 -4 10
-10 10 -5 0 -10 5 -10 11 0 5 5 7 11 3 7 -4 10 -1 7 7 -3 8 -14 13 -24 11 -15
-2 -16 -1 -4 7 8 5 17 8 21 5 4 -2 7 12 7 31 0 20 -5 35 -11 35 -9 0 -9 2 -1
8 15 9 15 65 0 74 -8 6 -8 8 1 8 6 0 11 15 11 35 0 20 -5 35 -11 35 -9 0 -9 2
-1 8 15 9 15 65 0 74 -8 6 -8 8 1 8 6 0 11 15 11 35 0 20 -5 35 -11 35 -9 0
-9 2 -1 8 7 4 12 21 12 37 0 17 -5 33 -12 37 -8 6 -8 8 1 8 6 0 11 15 11 35 0
20 -5 35 -11 35 -9 0 -9 2 -1 8 15 10 16 72 1 72 -9 0 -9 2 -1 8 14 9 14 74
-1 84 -7 5 -6 8 1 8 6 0 11 18 11 40 0 21 -4 37 -9 34 -4 -3 -8 0 -8 5 0 6 4
11 8 11 5 0 9 17 9 38 0 26 -5 39 -14 39 -15 0 -14 -27 2 -40 6 -5 4 -7 -5 -4
-19 5 -20 52 -1 52 8 0 16 6 19 14 3 8 0 11 -7 7 -6 -4 -11 -2 -11 3 0 6 5 11
10 11 6 0 10 5 10 11 0 6 -10 8 -22 5 -23 -6 -23 -6 -2 5 27 14 28 56 2 70
-10 5 -16 14 -13 18 3 5 -2 11 -10 15 -8 3 -15 10 -15 16 0 5 9 2 19 -7 11 -9
18 -20 16 -24 -3 -4 1 -9 9 -12 9 -4 14 2 14 19 0 13 -4 22 -7 19 -4 -2 -13 1
-21 6 -12 8 -11 9 4 7 10 -2 21 3 24 11 3 8 0 11 -7 7 -6 -4 -11 -2 -11 3 0 6
5 11 10 11 6 0 10 5 10 10 0 6 -8 10 -17 8 -23 -4 -25 43 -3 49 9 3 11 1 5 -4
-16 -13 -18 -43 -2 -37 20 7 18 53 -3 64 -21 11 -21 55 -1 55 8 0 16 6 19 14
3 8 0 11 -7 7 -6 -4 -11 -2 -11 3 0 6 4 11 8 11 5 0 9 17 9 38 0 26 -5 39 -14
39 -15 0 -14 -27 2 -40 6 -5 4 -7 -5 -4 -19 5 -20 52 -1 52 8 0 16 6 19 14 3
8 0 11 -7 7 -6 -4 -11 -2 -11 3 0 6 5 11 10 11 6 0 10 5 10 11 0 6 -10 8 -23
5 -22 -6 -22 -6 -1 5 27 14 28 56 2 70 -11 6 -17 13 -14 16 6 7 -38 43 -52 43
-5 0 -13 -7 -16 -16 -5 -12 -1 -14 17 -9 20 5 20 5 4 -5 -20 -13 -30 -8 -33
15 -1 8 6 17 16 20 10 3 23 12 29 19 9 11 6 14 -13 14 -14 0 -24 -5 -23 -10 1
-6 -5 -13 -13 -15 -9 -3 -11 -1 -5 4 12 10 20 47 8 40 -5 -3 -9 7 -8 23 0 27
1 28 19 12 18 -16 19 -16 13 1 -4 11 -3 16 3 12 6 -3 10 -2 10 4 0 6 -101 10
-284 11 l-285 1 0 -1301z m59 1256 c0 -2 -8 -10 -17 -17 -16 -13 -17 -12 -4 4
13 16 21 21 21 13z m63 -41 c-3 -9 -8 -14 -10 -11 -3 3 -2 9 2 15 9 16 15 13
8 -4z m-33 -5 c0 -5 -2 -10 -4 -10 -3 0 -8 5 -11 10 -3 6 -1 10 4 10 6 0 11
-4 11 -10z m455 -88 c-3 -3 -11 0 -18 7 -9 10 -8 11 6 5 10 -3 15 -9 12 -12z
m43 2 c-2 -8 -7 -14 -13 -14 -5 1 -13 -7 -17 -17 -7 -16 -8 -16 -5 2 2 11 9
19 16 17 9 -2 11 3 8 13 -4 8 -2 15 4 15 6 0 9 -7 7 -16z m13 -27 c-10 -9 -11
-8 -5 6 3 10 9 15 12 12 3 -3 0 -11 -7 -18z m31 -6 c-8 -4 -13 -12 -13 -17 1
-15 -42 -10 -46 6 -3 9 -1 11 4 5 10 -12 44 -19 42 -8 -3 16 1 23 14 23 9 0 9
-2 -1 -9z m-82 -41 c0 -23 -16 -35 -26 -19 -4 8 -3 9 4 5 8 -5 12 1 12 14 0
13 -4 19 -12 14 -7 -4 -8 -3 -4 5 10 16 26 4 26 -19z m17 -22 c-2 -7 3 -18 11
-24 12 -9 12 -13 2 -19 -8 -5 -11 -4 -7 2 4 6 0 13 -8 17 -8 3 -12 12 -9 21 7
18 18 21 11 3z m40 -20 c-3 -8 -6 -5 -6 6 -1 11 2 17 5 13 3 -3 4 -12 1 -19z
m-51 -20 c4 -6 3 -8 -4 -4 -7 4 -10 -1 -9 -14 1 -21 12 -27 20 -10 3 6 4 5 3
-2 -4 -20 -29 -15 -32 6 -4 31 9 46 22 24z m41 -30 c-3 -8 -6 -5 -6 6 -1 11 2
17 5 13 3 -3 4 -12 1 -19z m-52 -36 c-3 -3 -11 0 -18 7 -9 10 -8 11 6 5 10 -3
15 -9 12 -12z m84 3 c3 -3 -7 -4 -23 -1 -16 3 -31 8 -35 11 -3 3 7 4 23 1 16
-3 31 -8 35 -11z m-44 -14 c3 -5 0 -13 -6 -17 -8 -4 -9 -3 -5 4 4 7 2 12 -3
12 -6 0 -11 -5 -11 -12 0 -6 -3 -9 -6 -5 -7 7 4 27 16 27 5 0 11 -4 15 -9z
m-58 -23 c-3 -8 -6 -5 -6 6 -1 11 2 17 5 13 3 -3 4 -12 1 -19z m83 7 c0 -8 -4
-15 -10 -15 -5 0 -7 7 -4 15 4 8 8 15 10 15 2 0 4 -7 4 -15z m-40 -28 c0 -5
-7 -7 -15 -3 -8 3 -15 0 -15 -6 0 -6 -3 -9 -6 -5 -3 3 -4 10 0 15 7 12 36 11
36 -1z m24 -12 c3 -8 1 -15 -4 -15 -6 0 -10 7 -10 15 0 8 2 15 4 15 2 0 6 -7
10 -15z m-26 -30 c-3 -3 -9 2 -12 12 -6 14 -5 15 5 6 7 -7 10 -15 7 -18z m-18
-15 c0 -23 -16 -35 -26 -19 -4 8 -3 9 4 5 8 -5 12 1 12 14 0 13 -4 19 -12 14
-7 -4 -8 -3 -4 5 10 16 26 4 26 -19z m60 0 c0 -5 -8 -10 -17 -10 -15 0 -16 2
-3 10 19 12 20 12 20 0z m-54 -39 c-17 -19 -17 -20 3 -18 12 1 21 7 21 14 0 7
5 13 10 13 7 0 7 -6 1 -19 -9 -16 -49 -25 -53 -11 -2 8 26 49 31 45 2 -3 -4
-14 -13 -24z m54 -46 c0 -8 -2 -15 -4 -15 -2 0 -6 7 -10 15 -3 8 -1 15 4 15 6
0 10 -7 10 -15z m-28 -9 c6 4 8 2 5 -4 -4 -5 -15 -8 -25 -5 -13 3 -18 -2 -18
-16 0 -16 5 -20 21 -16 18 5 18 5 2 -5 -22 -14 -34 -7 -32 20 2 23 28 46 33
30 2 -6 9 -7 14 -4z m-37 -74 c-3 -3 -11 0 -18 7 -9 10 -8 11 6 5 10 -3 15 -9
12 -12z m43 2 c-2 -8 -7 -14 -13 -14 -5 1 -13 -7 -17 -17 -7 -16 -8 -16 -5 2
2 11 9 19 16 17 9 -2 11 3 8 13 -4 8 -2 15 4 15 6 0 9 -7 7 -16z m13 -27 c-10
-9 -11 -8 -5 6 3 10 9 15 12 12 3 -3 0 -11 -7 -18z m31 -6 c-8 -4 -13 -12 -13
-17 1 -15 -42 -10 -46 6 -3 9 -1 11 4 5 10 -12 44 -19 42 -8 -3 16 1 23 14 23
9 0 9 -2 -1 -9z m-82 -41 c0 -23 -16 -35 -26 -19 -4 8 -3 9 4 5 8 -5 12 1 12
14 0 13 -4 19 -12 14 -7 -4 -8 -3 -4 5 10 16 26 4 26 -19z m17 -22 c-2 -7 3
-18 11 -24 12 -9 12 -13 2 -19 -8 -5 -11 -4 -7 2 4 6 0 13 -8 17 -8 3 -12 12
-9 21 7 18 18 21 11 3z m40 -20 c-3 -8 -6 -5 -6 6 -1 11 2 17 5 13 3 -3 4 -12
1 -19z m-51 -20 c4 -6 3 -8 -4 -4 -7 4 -10 -1 -9 -14 1 -21 12 -27 20 -10 3 6
4 5 3 -2 -4 -20 -29 -15 -32 6 -4 31 9 46 22 24z m41 -30 c-3 -8 -6 -5 -6 6
-1 11 2 17 5 13 3 -3 4 -12 1 -19z m32 -33 c3 -3 -7 -4 -23 -1 -16 3 -31 8
-35 11 -3 3 7 4 23 1 16 -3 31 -8 35 -11z m-43 -35 c-1 -23 -9 -25 -34 -11 -9
6 -12 11 -6 11 5 0 16 -6 23 -12 10 -11 12 -9 9 7 -1 11 -10 26 -18 33 -13 11
-12 12 6 3 12 -6 21 -19 20 -31z m-40 18 c4 -7 3 -8 -4 -4 -7 4 -12 2 -12 -5
0 -7 -3 -10 -6 -6 -6 5 3 27 11 27 2 0 7 -5 11 -12z m55 -51 c-10 -9 -11 -8
-5 6 3 10 9 15 12 12 3 -3 0 -11 -7 -18z m-41 -7 c0 -5 -2 -10 -4 -10 -3 0 -8
5 -11 10 -3 6 -1 10 4 10 6 0 11 -4 11 -10z m72 1 c-8 -4 -13 -12 -13 -17 1
-15 -42 -10 -46 6 -3 9 -1 11 4 5 10 -12 44 -19 42 -8 -3 16 1 23 14 23 9 0 9
-2 -1 -9z m-82 -41 c0 -23 -16 -35 -26 -19 -4 8 -3 9 4 5 8 -5 12 1 12 14 0
13 -4 19 -12 14 -7 -4 -8 -3 -4 5 10 16 26 4 26 -19z m57 -6 c-3 -3 -12 -4
-19 -1 -8 3 -5 6 6 6 11 1 17 -2 13 -5z m-38 -16 c-3 -27 1 -39 13 -32 6 4 8
3 4 -4 -3 -6 -15 -9 -27 -7 -14 3 -19 -1 -17 -13 2 -9 8 -21 13 -25 6 -5 4 -7
-5 -4 -18 5 -20 53 -2 49 7 -1 12 3 11 10 -2 20 1 38 6 38 3 0 5 -6 4 -12z
m61 2 c-8 -5 -11 -10 -5 -10 5 0 4 -5 -2 -11 -8 -8 -16 -8 -30 0 -16 11 -16
11 5 6 12 -4 22 -3 21 2 -3 16 1 23 14 23 8 0 7 -4 -3 -10z m-13 -56 c-3 -3
-12 -4 -19 -1 -8 3 -5 6 6 6 11 1 17 -2 13 -5z m11 -35 c2 -8 0 -10 -5 -4 -4
6 -17 12 -28 13 -16 3 -18 1 -7 -9 6 -7 12 -17 12 -23 0 -5 -6 -1 -14 9 -8 11
-12 23 -10 27 8 12 48 2 52 -13z m-58 -19 c0 -5 -2 -10 -4 -10 -3 0 -8 5 -11
10 -3 6 -1 10 4 10 6 0 11 -4 11 -10z m-28 -20 c-2 -9 6 -10 25 -6 23 5 25 4
10 -5 -20 -12 -52 -5 -43 10 4 5 1 12 -4 14 -6 3 -5 4 2 3 7 -2 12 -9 10 -16z
m83 -40 c0 -7 -6 -14 -13 -16 -7 -1 -8 0 -2 3 17 8 11 19 -10 20 -13 1 -18 -2
-14 -9 4 -7 2 -8 -5 -4 -6 4 -9 12 -6 17 9 13 50 4 50 -11z m-59 -15 c4 -8 11
-12 17 -8 6 3 7 1 3 -5 -3 -6 -15 -9 -27 -7 -14 3 -19 -1 -17 -13 2 -9 8 -21
13 -25 6 -5 4 -7 -5 -4 -18 4 -21 53 -2 50 6 -2 12 1 12 6 0 5 -6 12 -12 14
-10 4 -10 6 0 6 7 1 15 -6 18 -14z m51 -31 c-3 -3 -12 -4 -19 -1 -8 3 -5 6 6
6 11 1 17 -2 13 -5z m11 -35 c2 -8 0 -10 -5 -4 -4 6 -17 12 -28 13 -16 3 -18
1 -7 -9 6 -7 12 -17 12 -23 0 -5 -6 -1 -14 9 -8 11 -12 23 -10 27 8 12 48 2
52 -13z m-58 -19 c0 -5 -2 -10 -4 -10 -3 0 -8 5 -11 10 -3 6 -1 10 4 10 6 0
11 -4 11 -10z m-28 -20 c-2 -9 6 -10 25 -6 23 5 25 4 10 -5 -20 -12 -52 -5
-43 10 4 5 1 12 -4 14 -6 3 -5 4 2 3 7 -2 12 -9 10 -16z m83 -40 c0 -7 -6 -14
-13 -16 -7 -1 -8 0 -2 3 17 8 11 19 -10 20 -13 1 -18 -2 -14 -9 4 -7 2 -8 -5
-4 -6 4 -9 12 -6 17 9 13 50 4 50 -11z m-59 -15 c4 -8 11 -12 17 -8 6 3 7 1 3
-5 -3 -6 -15 -9 -27 -7 -14 3 -19 -1 -17 -13 2 -9 8 -21 13 -25 6 -5 4 -7 -5
-4 -18 4 -21 53 -2 50 6 -2 12 1 12 6 0 5 -6 12 -12 14 -10 4 -10 6 0 6 7 1
15 -6 18 -14z m51 -31 c-3 -3 -12 -4 -19 -1 -8 3 -5 6 6 6 11 1 17 -2 13 -5z
m11 -35 c2 -8 0 -10 -5 -4 -4 6 -17 12 -28 13 -16 3 -18 1 -7 -9 6 -7 12 -17
12 -23 0 -5 -6 -1 -14 9 -8 11 -12 23 -10 27 8 12 48 2 52 -13z m-58 -19 c0
-5 -2 -10 -4 -10 -3 0 -8 5 -11 10 -3 6 -1 10 4 10 6 0 11 -4 11 -10z m-28
-20 c-2 -9 6 -10 25 -6 23 5 25 4 10 -5 -20 -12 -52 -5 -43 10 4 5 1 12 -4 14
-6 3 -5 4 2 3 7 -2 12 -9 10 -16z m83 -40 c0 -7 -6 -14 -13 -16 -7 -1 -8 0 -2
3 17 8 11 19 -10 20 -13 1 -18 -2 -14 -9 4 -7 2 -8 -5 -4 -6 4 -9 12 -6 17 9
13 50 4 50 -11z m-59 -15 c4 -8 11 -12 17 -8 6 3 7 1 3 -5 -3 -6 -15 -9 -27
-7 -14 3 -19 -1 -17 -13 2 -9 8 -21 13 -25 6 -5 4 -7 -5 -4 -18 4 -21 53 -2
50 6 -2 12 1 12 6 0 5 -6 12 -12 14 -10 4 -10 6 0 6 7 1 15 -6 18 -14z m51
-31 c-3 -3 -12 -4 -19 -1 -8 3 -5 6 6 6 11 1 17 -2 13 -5z m11 -35 c2 -8 0
-10 -5 -4 -4 6 -17 12 -28 13 -16 3 -18 1 -7 -9 6 -7 12 -17 12 -23 0 -5 -6
-1 -14 9 -8 11 -12 23 -10 27 8 12 48 2 52 -13z m-58 -19 c0 -5 -2 -10 -4 -10
-3 0 -8 5 -11 10 -3 6 -1 10 4 10 6 0 11 -4 11 -10z m-28 -20 c-2 -9 6 -10 25
-6 23 5 25 4 10 -5 -20 -12 -52 -5 -43 10 4 5 1 12 -4 14 -6 3 -5 4 2 3 7 -2
12 -9 10 -16z m83 -51 c0 -19 -6 -24 -25 -24 -18 0 -25 6 -26 20 -1 29 5 35
29 31 16 -2 22 -10 22 -27z m-65 1 c0 -5 -2 -10 -4 -10 -3 0 -8 5 -11 10 -3 6
-1 10 4 10 6 0 11 -4 11 -10z m-10 -40 c0 -23 -16 -35 -26 -19 -4 8 -3 9 4 5
8 -5 12 1 12 14 0 13 -4 19 -12 14 -7 -4 -8 -3 -4 5 10 16 26 4 26 -19z m17
-22 c-2 -7 3 -18 11 -24 12 -9 12 -13 2 -19 -8 -5 -11 -4 -7 2 4 6 0 13 -8 17
-8 3 -12 12 -9 21 7 18 18 21 11 3z m40 -20 c-3 -8 -6 -5 -6 6 -1 11 2 17 5
13 3 -3 4 -12 1 -19z m-51 -20 c4 -6 3 -8 -4 -4 -7 4 -10 -1 -9 -14 1 -21 12
-27 20 -10 3 6 4 5 3 -2 -4 -20 -29 -15 -32 6 -4 31 9 46 22 24z m41 -30 c-3
-8 -6 -5 -6 6 -1 11 2 17 5 13 3 -3 4 -12 1 -19z m-52 -36 c-3 -3 -11 0 -18 7
-9 10 -8 11 6 5 10 -3 15 -9 12 -12z m84 3 c3 -3 -7 -4 -23 -1 -16 3 -31 8
-35 11 -3 3 7 4 23 1 16 -3 31 -8 35 -11z m-44 -14 c3 -5 0 -13 -6 -17 -8 -4
-9 -3 -5 4 4 7 2 12 -3 12 -6 0 -11 -5 -11 -12 0 -6 -3 -9 -6 -5 -7 7 4 27 16
27 5 0 11 -4 15 -9z m-58 -23 c-3 -8 -6 -5 -6 6 -1 11 2 17 5 13 3 -3 4 -12 1
-19z m83 7 c0 -8 -4 -15 -10 -15 -5 0 -7 7 -4 15 4 8 8 15 10 15 2 0 4 -7 4
-15z m-40 -28 c0 -5 -7 -7 -15 -3 -8 3 -15 0 -15 -6 0 -6 -3 -9 -6 -5 -3 3 -4
10 0 15 7 12 36 11 36 -1z m24 -12 c3 -8 1 -15 -4 -15 -6 0 -10 7 -10 15 0 8
2 15 4 15 2 0 6 -7 10 -15z m-26 -30 c-3 -3 -9 2 -12 12 -6 14 -5 15 5 6 7 -7
10 -15 7 -18z m-18 -15 c0 -23 -16 -35 -26 -19 -4 8 -3 9 4 5 8 -5 12 1 12 14
0 13 -4 19 -12 14 -7 -4 -8 -3 -4 5 10 16 26 4 26 -19z m60 0 c0 -5 -8 -10
-17 -10 -15 0 -16 2 -3 10 19 12 20 12 20 0z m-54 -39 c-17 -19 -17 -20 3 -18
12 1 21 7 21 14 0 7 5 13 10 13 7 0 7 -6 1 -19 -9 -16 -49 -25 -53 -11 -2 8
26 49 31 45 2 -3 -4 -14 -13 -24z m-11 -49 c-3 -3 -11 0 -18 7 -9 10 -8 11 6
5 10 -3 15 -9 12 -12z m65 3 c0 -8 -2 -15 -4 -15 -2 0 -6 7 -10 15 -3 8 -1 15
4 15 6 0 10 -7 10 -15z m-28 -9 c7 4 8 2 4 -5 -4 -6 -12 -8 -18 -5 -8 5 -9 1
-4 -12 5 -14 4 -16 -4 -8 -6 6 -7 19 -3 29 4 11 8 14 11 7 2 -7 9 -9 14 -6z
m38 -27 c-8 -5 -24 -14 -35 -20 -18 -9 -19 -9 -3 4 10 8 16 16 13 18 -2 3 6 6
18 6 17 2 19 0 7 -8z m-70 -19 c0 -5 -2 -10 -4 -10 -3 0 -8 5 -11 10 -3 6 -1
10 4 10 6 0 11 -4 11 -10z"/>
<path d="M583 1861 c-1 -9 6 -17 16 -18 9 -1 17 6 18 16 1 9 -6 17 -16 18 -9
1 -17 -6 -18 -16z"/>
<path d="M579 3502 c-7 -36 -4 -55 13 -66 20 -14 58 -10 58 6 0 5 -8 7 -17 4
-10 -3 -22 -2 -28 2 -13 9 -18 39 -7 46 4 2 9 -5 9 -16 2 -26 7 -30 25 -23 9
4 16 17 16 30 0 20 -6 23 -34 23 -19 0 -35 -3 -35 -6z m54 -17 c-3 -9 -8 -14
-10 -11 -3 3 -2 9 2 15 9 16 15 13 8 -4z"/>
<path d="M2085 3435 c0 -59 3 -71 17 -71 13 0 14 4 6 19 -7 14 -7 17 1 12 7
-4 18 -1 26 5 11 9 15 9 15 1 0 -6 -6 -14 -14 -17 -8 -3 -12 -12 -9 -20 3 -8
9 -11 14 -8 5 3 7 9 5 12 -2 4 3 18 13 30 11 16 22 21 35 16 14 -5 15 -9 4
-15 -9 -6 -9 -9 -1 -9 6 0 11 -9 10 -20 -1 -11 -5 -20 -10 -20 -5 0 -3 -8 4
-17 10 -11 10 -14 2 -9 -14 8 -18 -6 -6 -18 11 -11 12 -36 1 -36 -6 0 -7 8 -3
18 4 12 3 14 -5 6 -12 -12 -3 -47 10 -39 10 6 8 -15 -3 -32 -5 -8 -3 -13 5
-13 7 -1 2 -7 -11 -14 -15 -8 -20 -16 -12 -20 6 -4 11 -2 11 4 0 6 5 8 11 4 8
-4 7 -9 -2 -15 -7 -4 -17 -5 -21 -3 -10 6 -11 -10 -1 -19 3 -4 11 -3 18 3 8 6
11 2 11 -15 0 -14 -4 -25 -9 -25 -5 0 -6 8 -2 18 4 12 3 14 -5 6 -12 -12 -3
-47 10 -39 10 6 8 -15 -3 -32 -5 -8 -3 -13 5 -13 7 -1 2 -7 -11 -14 -15 -8
-20 -16 -12 -20 6 -4 11 -2 11 4 0 6 5 8 11 4 8 -4 7 -9 -2 -15 -7 -4 -17 -5
-21 -3 -10 6 -11 -10 -1 -19 3 -4 11 -3 18 3 8 6 11 2 11 -15 0 -14 -4 -25 -9
-25 -5 0 -3 -8 4 -17 8 -9 9 -14 3 -10 -7 4 -15 0 -18 -9 -9 -23 -7 -31 3 -15
6 9 11 10 15 2 4 -6 1 -11 -6 -11 -9 0 -9 -3 2 -10 12 -8 12 -10 1 -10 -11 0
-11 -3 -1 -15 10 -12 9 -16 -5 -21 -17 -7 -17 -8 -1 -20 16 -11 16 -13 -3 -19
-12 -3 -18 -11 -15 -17 4 -7 9 -6 14 2 5 9 9 9 14 1 6 -10 -6 -15 -26 -12 -10
1 -10 -13 -1 -22 3 -4 11 -3 18 3 8 6 11 2 11 -15 0 -14 -4 -25 -9 -25 -5 0
-3 -8 4 -17 10 -11 10 -14 2 -9 -14 8 -18 -6 -6 -18 11 -11 12 -36 1 -36 -6 0
-7 8 -3 18 4 12 3 14 -5 6 -12 -12 -3 -47 10 -39 10 6 8 -15 -3 -32 -5 -8 -3
-13 5 -13 7 -1 2 -7 -11 -14 -15 -8 -20 -16 -12 -20 6 -4 11 -2 11 4 0 6 5 8
11 4 8 -4 7 -9 -2 -15 -7 -4 -17 -5 -21 -3 -10 6 -11 -10 -1 -19 3 -4 11 -3
18 3 8 6 11 2 11 -15 0 -14 -4 -25 -9 -25 -5 0 -6 8 -2 18 4 12 3 14 -5 6 -12
-12 -3 -47 10 -39 10 6 8 -15 -3 -32 -5 -8 -3 -13 5 -13 7 -1 2 -7 -11 -14
-15 -8 -20 -16 -12 -20 6 -4 11 -2 11 4 0 6 5 8 11 4 8 -4 7 -9 -2 -15 -7 -4
-17 -5 -21 -3 -10 6 -11 -10 -1 -19 3 -4 11 -3 18 3 8 6 11 2 11 -15 0 -14 -4
-25 -9 -25 -5 0 -3 -8 4 -17 8 -9 9 -14 3 -10 -7 4 -15 0 -18 -9 -9 -23 -7
-31 3 -15 6 9 11 10 15 2 4 -6 1 -11 -6 -11 -9 0 -9 -3 2 -10 12 -8 12 -10 1
-10 -11 0 -11 -3 -1 -15 10 -12 9 -16 -5 -21 -17 -7 -17 -8 -1 -20 16 -11 16
-13 -3 -19 -12 -3 -18 -11 -15 -17 4 -7 9 -6 14 2 5 9 9 9 14 1 6 -10 -6 -15
-26 -12 -10 1 -10 -13 -1 -22 3 -4 11 -3 18 3 8 6 11 2 11 -15 0 -14 -4 -25
-9 -25 -5 0 -3 -8 4 -17 10 -11 10 -14 2 -9 -14 8 -18 -6 -6 -18 11 -11 12
-36 1 -36 -6 0 -7 8 -3 18 4 12 3 14 -5 6 -12 -12 -3 -47 10 -39 10 6 8 -15
-3 -32 -5 -8 -3 -13 5 -13 7 -1 2 -7 -11 -14 -15 -8 -20 -16 -12 -20 6 -4 11
-2 11 4 0 6 5 8 11 4 8 -4 7 -9 -2 -15 -7 -4 -16 -6 -20 -3 -4 2 -7 -5 -6 -16
2 -24 6 -25 21 -4 10 13 12 13 12 -5 0 -11 -4 -17 -8 -15 -4 3 -8 0 -8 -5 0
-6 5 -11 11 -11 6 0 1 -9 -12 -20 -13 -10 -19 -19 -14 -20 6 0 15 4 21 10 6 6
10 2 11 -13 0 -12 -1 -17 -4 -10 -5 13 -33 6 -33 -9 0 -5 4 -7 9 -4 5 3 15 -2
22 -11 8 -9 9 -14 4 -11 -6 4 -16 -2 -23 -13 -13 -21 -3 -26 15 -8 9 9 11 8 9
-4 -1 -9 -5 -20 -9 -23 -4 -4 -1 -14 6 -22 6 -9 7 -13 2 -10 -6 4 -16 -2 -23
-13 -13 -20 -3 -26 14 -9 6 6 10 2 11 -13 0 -12 -1 -17 -4 -10 -5 13 -33 6
-33 -9 0 -5 4 -7 9 -4 5 3 15 -2 22 -11 8 -9 9 -14 4 -11 -6 4 -16 -2 -23 -13
-13 -20 -3 -26 14 -9 7 7 10 1 10 -20 0 -16 -4 -30 -8 -30 -5 0 -7 10 -3 23 5
18 4 19 -5 5 -11 -17 -3 -51 10 -43 10 6 8 -15 -3 -32 -5 -8 -3 -13 5 -13 7
-1 2 -7 -11 -14 -15 -8 -20 -16 -12 -20 6 -4 11 -2 11 4 0 6 5 8 11 4 8 -4 7
-9 -2 -15 -7 -4 -17 -5 -21 -3 -10 6 -11 -10 -1 -19 3 -4 11 -3 18 3 8 6 11 2
11 -15 0 -14 -4 -25 -9 -25 -5 0 -3 -8 4 -17 8 -9 9 -14 3 -10 -7 4 -15 0 -18
-9 -9 -23 -7 -31 3 -15 6 9 11 10 15 2 4 -6 1 -11 -6 -11 -9 0 -9 -3 2 -10 12
-8 12 -10 1 -10 -11 0 -11 -3 -1 -15 10 -12 9 -16 -5 -21 -17 -7 -17 -8 -1
-20 16 -11 16 -13 -3 -19 -12 -3 -18 -11 -15 -17 4 -7 9 -6 14 2 5 9 9 9 14 1
6 -10 -6 -15 -26 -12 -10 1 -10 -13 -1 -22 3 -4 11 -3 18 3 8 6 11 2 11 -15 0
-14 -4 -25 -9 -25 -5 0 -3 -8 4 -17 8 -9 9 -14 3 -10 -7 4 -15 0 -18 -9 -9
-23 -7 -31 3 -15 6 9 11 10 15 2 6 -10 -5 -15 -26 -12 -4 0 -6 -8 -5 -19 2
-25 6 -25 24 -2 13 15 13 15 3 -6 -8 -17 -8 -22 2 -22 9 0 9 -3 -2 -10 -13 -9
-13 -11 0 -20 11 -7 11 -10 2 -10 -9 0 -10 -5 -2 -19 9 -17 7 -19 -10 -16 -11
2 -20 0 -20 -6 0 -5 111 -9 280 -9 l280 0 1 653 c1 358 1 658 0 666 -2 7 2 10
7 7 5 -3 16 2 23 12 12 15 12 16 -2 5 -9 -7 -19 -10 -22 -6 -10 9 -8 45 1 39
5 -3 9 1 9 9 0 8 -5 12 -10 8 -5 -3 -7 3 -5 13 3 15 13 18 64 19 l61 1 3 -66
c1 -36 3 -93 4 -127 0 -44 4 -59 12 -52 6 5 14 6 17 3 10 -11 76 -13 82 -4 3
6 0 7 -8 4 -8 -3 -14 2 -14 11 0 9 6 14 12 11 6 -2 12 2 12 9 0 7 -7 11 -14 8
-17 -7 -15 26 2 40 6 5 2 6 -8 3 -12 -4 -16 -2 -11 7 5 9 4 9 -7 0 -15 -14
-29 -17 -29 -5 0 15 52 32 69 22 12 -7 12 -9 2 -10 -9 0 -10 -4 -4 -12 6 -7 9
-31 8 -53 -1 -22 1 -44 4 -50 3 -5 4 -22 3 -36 -2 -17 3 -29 13 -33 11 -4 15
-1 13 12 -2 9 -7 21 -13 25 -6 5 -4 7 5 4 22 -6 20 -53 -2 -49 -10 2 -18 -1
-18 -7 0 -5 8 -12 18 -14 16 -4 16 -5 0 -6 -25 -1 -23 -21 2 -21 11 0 20 6 20
13 0 7 3 8 8 2 11 -15 42 -18 58 -4 8 6 14 10 15 8 7 -37 10 -63 12 -104 2
-36 7 -49 17 -47 7 2 34 4 59 5 l46 2 5 -70 5 -69 62 1 62 1 1 -61 c2 -166 5
-190 23 -193 9 -1 20 2 23 7 3 6 12 5 21 -2 9 -8 17 -9 21 -3 9 12 46 18 38 5
-4 -5 -2 -12 3 -15 4 -3 7 -19 5 -36 -2 -16 1 -30 6 -30 6 0 10 -5 10 -11 0
-5 -5 -7 -11 -3 -7 4 -10 1 -7 -7 3 -8 11 -14 18 -14 7 0 16 -9 20 -20 7 -19
7 -19 17 0 12 20 43 30 43 13 0 -6 -7 -8 -15 -4 -8 3 -15 1 -15 -4 0 -15 40
-12 40 3 0 6 5 4 11 -5 5 -10 9 -24 8 -30 -1 -7 -1 -35 0 -61 1 -44 3 -48 24
-47 12 1 41 2 65 1 l42 -1 0 -68 0 -69 66 5 c45 3 64 1 60 -6 -4 -6 -15 -9
-26 -7 -12 2 -18 0 -15 -5 3 -5 14 -7 24 -5 16 3 18 -3 17 -51 l-1 -55 262 1
263 1 -3 1297 -2 1297 -302 2 c-185 1 -303 -1 -303 -7 0 -5 13 -8 30 -6 16 2
27 0 25 -5 -5 -7 -22 -7 -68 0 -5 0 -5 6 -2 11 3 6 0 10 -8 10 -7 0 -14 -7
-14 -15 0 -8 4 -15 9 -15 4 0 8 -7 8 -15 0 -8 5 -15 11 -15 5 0 8 4 5 9 -3 4
5 8 17 7 31 -3 68 15 60 28 -3 6 -2 7 3 3 5 -5 10 -27 11 -50 1 -28 -1 -36 -8
-26 -7 12 -9 12 -9 -1 0 -9 5 -21 11 -27 8 -8 8 -13 0 -18 -6 -3 -11 -3 -10 2
4 25 -15 51 -37 51 -13 0 -24 -4 -24 -9 0 -8 8 -11 26 -8 8 1 24 -22 24 -33 0
-5 -5 -8 -11 -8 -5 0 -7 5 -4 10 6 9 -8 14 -27 11 -8 -1 -10 5 -12 32 -1 7 12
12 34 12 25 0 36 5 38 18 2 9 -2 17 -8 17 -6 0 -9 -4 -6 -9 3 -4 -5 -7 -17 -7
-12 1 -35 -4 -51 -12 -15 -7 -26 -10 -23 -5 3 5 1 15 -4 23 -6 11 -8 6 -7 -18
2 -22 6 -31 16 -27 7 2 10 0 7 -5 -3 -6 -1 -10 4 -10 6 0 11 -5 11 -12 0 -9
-3 -9 -12 0 -7 7 -15 12 -18 12 -10 0 -6 -123 4 -139 6 -10 6 -12 -2 -7 -8 5
-12 -2 -12 -18 0 -14 5 -26 10 -26 6 0 10 -5 10 -11 0 -5 -4 -7 -10 -4 -18 11
-11 -44 8 -55 16 -11 16 -11 0 -6 -14 4 -18 0 -18 -19 0 -14 5 -25 10 -25 6 0
10 -5 10 -11 0 -5 -4 -8 -8 -5 -5 3 -9 -46 -10 -109 -1 -68 3 -115 8 -115 6 0
10 -5 10 -11 0 -5 -4 -8 -8 -5 -5 3 -9 -46 -10 -109 -1 -68 3 -115 8 -115 6 0
10 -5 10 -11 0 -5 -4 -8 -8 -5 -5 3 -9 -46 -10 -109 -1 -68 3 -115 8 -115 6 0
10 -5 10 -11 0 -5 -4 -8 -9 -5 -5 4 -9 -22 -9 -56 1 -50 5 -66 19 -76 11 -7
19 -19 19 -25 0 -7 -5 -4 -11 6 -21 35 -31 17 -27 -48 1 -36 1 -65 -2 -66 -3
0 -17 -3 -32 -5 -19 -3 -28 0 -31 13 -4 17 -5 17 -6 1 -1 -13 -9 -18 -30 -18
-29 0 -29 0 -30 63 -5 199 -3 192 -32 192 -20 1 -25 -3 -22 -15 4 -13 3 -13
-9 0 -20 23 -55 21 -53 -3 1 -12 7 -23 13 -25 6 -2 10 5 7 17 -3 14 0 18 12
14 11 -4 11 -8 3 -13 -9 -5 -9 -9 -1 -14 6 -4 11 -3 11 1 0 14 38 13 50 -2 9
-11 6 -13 -19 -10 -28 4 -30 2 -19 -15 8 -13 16 -16 22 -10 6 6 15 10 21 10 5
0 3 -5 -5 -10 -10 -6 -11 -10 -2 -10 6 0 12 -5 12 -11 0 -5 -4 -8 -9 -4 -5 3
-13 0 -17 -6 -4 -7 -3 -9 4 -5 6 3 13 2 16 -3 9 -14 -19 -7 -40 9 -16 14 -17
13 -11 -4 6 -16 5 -17 -8 -6 -9 7 -15 8 -15 2 0 -11 -26 -10 -35 1 -3 4 -2 5
1 2 10 -7 64 24 64 38 0 8 -4 7 -10 -3 -5 -8 -12 -11 -17 -7 -4 5 -1 12 6 16
8 5 9 11 3 15 -10 6 -25 -21 -18 -33 3 -4 -5 -8 -17 -8 -17 -2 -19 0 -7 7 13
9 13 11 0 20 -11 7 -11 10 -2 10 8 0 10 5 5 13 -9 15 -10 17 -11 95 -2 48 -5
61 -14 56 -8 -5 -7 -1 1 10 14 17 12 18 -30 16 -94 -4 -89 -8 -89 65 l0 65
-52 1 c-29 1 -59 1 -65 0 -9 -1 -13 18 -13 68 0 42 -5 73 -12 77 -7 4 -8 3 -4
-5 5 -7 2 -10 -6 -9 -15 3 -28 18 -28 33 0 6 5 3 10 -5 6 -9 10 -10 10 -3 0 6
-4 15 -10 18 -5 3 -10 12 -10 18 1 7 9 2 19 -10 22 -27 28 -28 28 -8 0 8 -4
12 -9 9 -4 -3 -8 -1 -8 5 0 5 5 13 10 16 6 3 10 11 10 18 0 6 -6 3 -13 -8 -14
-18 -37 -14 -37 8 0 8 3 8 9 -2 6 -9 11 -10 15 -2 7 10 -6 16 -28 12 -5 -1 -5
6 -2 16 5 14 4 15 -4 7 -8 -8 -9 -19 -3 -30 5 -11 8 -35 8 -54 0 -33 -2 -35
-36 -35 l-36 -1 -1 53 c0 39 4 56 16 64 16 10 16 10 0 5 -21 -6 -25 6 -23 75
1 40 -2 56 -11 56 -7 0 -11 -4 -8 -9 3 -4 0 -8 -5 -8 -6 0 -11 5 -11 10 0 6
-5 10 -11 10 -5 0 -7 -4 -4 -10 3 -5 1 -10 -4 -10 -6 0 -11 4 -11 9 0 13 -43
10 -52 -4 -4 -5 -8 4 -9 20 0 17 -1 50 -2 75 l-2 45 -53 5 c-39 4 -51 3 -48
-7 3 -7 0 -15 -6 -19 -6 -4 -8 -3 -4 4 3 6 1 14 -4 17 -6 4 -11 19 -10 33 1
15 2 44 1 65 l-1 37 -65 0 -65 0 0 68 0 69 -62 -1 -62 -1 -2 53 c0 29 4 56 9
59 6 4 7 1 2 -7 -6 -9 -4 -11 5 -5 8 5 11 4 7 -2 -4 -6 1 -10 10 -9 9 0 18 -5
21 -13 3 -10 0 -11 -9 -5 -21 13 -39 14 -39 2 0 -6 6 -8 14 -5 8 3 20 -1 27
-9 10 -13 8 -14 -15 -10 -15 3 -24 1 -21 -5 4 -5 10 -7 15 -4 5 3 11 1 14 -4
3 -5 -4 -11 -16 -14 -12 -4 -19 -9 -16 -12 3 -4 16 -1 28 5 12 7 20 8 17 3 -8
-13 25 -13 42 1 11 8 13 8 7 -1 -5 -9 -2 -11 9 -6 13 5 14 7 3 14 -11 7 -10
11 2 19 11 7 11 10 2 10 -8 0 -10 5 -5 13 11 18 12 37 2 37 -5 0 -9 -5 -9 -11
0 -5 -4 -8 -10 -4 -5 3 -7 13 -4 23 5 13 4 14 -4 3 -8 -11 -10 -11 -15 0 -5
12 -6 12 -6 0 -1 -9 -5 -10 -13 -3 -8 6 -99 9 -233 8 l-220 -1 2 -27 c2 -33
-7 -36 -26 -7 -11 19 -11 21 3 16 9 -4 13 -1 10 7 -2 6 -15 12 -29 12 -13 0
-21 -4 -19 -8 3 -4 0 -8 -5 -8 -6 0 -11 6 -11 13 0 8 -4 7 -10 -3 -5 -8 -10
-10 -10 -4 0 6 -6 11 -13 11 -9 0 -13 -20 -12 -72z m81 56 c-3 -5 5 -20 18
-34 24 -26 25 -40 1 -31 -7 3 -16 0 -20 -5 -3 -6 -10 -9 -15 -6 -5 3 -11 1
-15 -5 -9 -15 -25 -12 -25 5 0 8 -4 15 -8 15 -5 0 -8 13 -8 30 0 29 14 35 42
17 7 -4 14 0 18 8 3 8 8 15 11 15 4 0 4 -4 1 -9z m489 -1 c4 -6 10 -8 15 -5 4
3 13 -2 20 -10 7 -8 17 -12 23 -8 6 4 7 1 1 -8 -4 -8 -9 -20 -11 -28 -3 -20
-20 -34 -32 -27 -6 4 -9 20 -6 36 4 22 0 33 -17 44 -12 9 -17 16 -11 16 7 0
15 -5 18 -10z m1670 -10 c3 -5 1 -10 -4 -10 -6 0 -11 5 -11 10 0 6 2 10 4 10
3 0 8 -4 11 -10z m10 -60 c-3 -5 -12 -10 -18 -10 -7 0 -6 4 3 10 19 12 23 12
15 0z m-539 -78 c-17 -16 -18 -16 -5 5 7 12 15 20 18 17 3 -2 -3 -12 -13 -22z
m54 -3 c12 -8 10 -9 -9 -4 -14 4 -21 3 -18 -2 3 -5 -3 -17 -14 -26 -10 -9 -19
-13 -19 -7 0 5 8 14 18 19 9 6 13 11 9 11 -5 0 -5 5 -2 10 8 13 16 12 35 -1z
m40 -19 c0 -5 -4 -10 -10 -10 -5 0 -10 5 -10 10 0 6 5 10 10 10 6 0 10 -4 10
-10z m-28 -29 c-2 -9 4 -12 19 -8 16 4 19 3 11 -5 -14 -14 -46 -2 -36 14 5 8
2 9 -9 5 -10 -3 -17 -2 -17 4 0 6 8 9 18 7 9 -2 16 -10 14 -17z m-36 -13 c4
-7 3 -8 -4 -4 -7 4 -12 2 -12 -5 0 -7 -3 -10 -6 -6 -6 5 3 27 11 27 2 0 7 -5
11 -12z m24 -18 c0 -5 -8 -10 -17 -10 -15 0 -16 2 -3 10 19 12 20 12 20 0z
m40 -20 c0 -5 -6 -7 -14 -4 -11 4 -13 0 -9 -14 2 -11 1 -22 -4 -25 -6 -4 -9
33 -4 51 3 7 31 0 31 -8z m-45 -20 c3 -6 -1 -7 -9 -4 -18 7 -21 14 -7 14 6 0
13 -4 16 -10z m-20 -20 c-3 -5 -12 -10 -18 -10 -7 0 -6 4 3 10 19 12 23 12 15
0z m56 -21 c-5 -13 -10 -19 -10 -12 -1 15 10 45 15 40 3 -2 0 -15 -5 -28z
m-31 -10 c0 -6 -4 -7 -10 -4 -5 3 -10 11 -10 16 0 6 5 7 10 4 6 -3 10 -11 10
-16z m-35 -2 c14 -11 15 -16 5 -22 -9 -6 -11 -4 -5 5 6 10 4 12 -9 7 -9 -4
-15 -3 -11 2 3 5 -1 12 -7 14 -7 3 -8 6 -2 6 5 1 18 -5 29 -12z m55 -27 c0 -5
-4 -10 -10 -10 -5 0 -10 5 -10 10 0 6 5 10 10 10 6 0 10 -4 10 -10z m-37 -21
c-8 -8 -13 -7 -18 2 -5 8 -4 10 3 5 7 -4 12 -2 12 5 0 7 3 9 7 6 4 -4 2 -12
-4 -18z m-13 -19 c18 -12 2 -12 -25 0 -13 6 -15 9 -5 9 8 0 22 -4 30 -9z m70
-20 c0 -5 -4 -10 -10 -10 -5 0 -10 5 -10 10 0 6 5 10 10 10 6 0 10 -4 10 -10z
m-28 -30 c-2 -8 4 -11 19 -7 16 4 19 3 11 -5 -13 -13 -46 -2 -36 13 4 8 -1 9
-17 4 -19 -5 -21 -4 -9 4 18 13 36 8 32 -9z m-66 -28 c-17 -16 -18 -16 -5 5 7
12 15 20 18 17 3 -2 -3 -12 -13 -22z m54 -2 c0 -5 -7 -6 -17 -3 -10 4 -14 2
-9 -5 3 -6 0 -14 -8 -19 -8 -4 -15 -12 -15 -18 0 -5 -5 -11 -13 -13 -9 -2 -8
0 2 7 8 6 11 11 5 11 -5 0 -1 7 9 15 11 8 16 15 12 15 -4 0 -4 5 -1 10 8 13
35 13 35 0z m40 -20 c0 -5 -6 -7 -14 -4 -11 4 -13 0 -9 -14 2 -11 1 -22 -4
-25 -6 -4 -9 33 -4 51 3 7 31 0 31 -8z m-51 -34 c-8 -6 -16 -20 -17 -30 -3
-17 -2 -18 12 -7 11 9 16 10 16 2 0 -6 -4 -11 -10 -11 -5 0 -13 0 -17 0 -14 0
-11 42 3 47 8 3 11 10 7 16 -4 6 -1 7 7 2 11 -7 10 -10 -1 -19z m-756 -11 c22
4 28 2 17 -4 -8 -5 -18 -7 -22 -5 -4 3 -8 3 -8 0 0 -2 -3 -13 -7 -23 -7 -17
-6 -17 20 0 15 9 27 13 27 7 0 -5 -5 -10 -11 -10 -8 0 -7 -6 2 -17 11 -15 11
-16 -1 -5 -23 20 -32 14 -15 -11 15 -23 14 -23 -15 -22 -22 1 -36 11 -55 39
-14 20 -21 34 -15 31 16 -10 40 14 34 33 -5 15 -4 15 6 -1 8 -12 19 -16 43
-12z m-63 5 c0 -5 -5 -10 -11 -10 -5 0 -7 5 -4 10 3 6 8 10 11 10 2 0 4 -4 4
-10z m861 -21 c-5 -13 -10 -19 -10 -12 -1 15 10 45 15 40 3 -2 0 -15 -5 -28z
m-88 -4 c-3 -9 -8 -14 -10 -11 -3 3 -2 9 2 15 9 16 15 13 8 -4z m11 -37 c-3
-4 -9 -8 -15 -8 -5 0 -9 4 -9 8 0 5 7 9 15 9 8 0 12 -4 9 -9z m66 2 c0 -5 -4
-10 -10 -10 -5 0 -10 5 -10 10 0 6 5 10 10 10 6 0 10 -4 10 -10z m-37 -21 c-8
-8 -13 -7 -18 2 -5 8 -4 10 3 5 7 -4 12 -2 12 5 0 7 3 9 7 6 4 -4 2 -12 -4
-18z m-819 -5 c5 -14 4 -15 -9 -4 -17 14 -19 20 -6 20 5 0 12 -7 15 -16z m806
-14 c18 -12 2 -12 -25 0 -13 6 -15 9 -5 9 8 0 22 -4 30 -9z m70 -20 c0 -5 -4
-10 -10 -10 -5 0 -10 5 -10 10 0 6 5 10 10 10 6 0 10 -4 10 -10z m-28 -30 c-2
-8 4 -11 19 -7 16 4 19 3 11 -5 -13 -13 -46 -2 -36 13 4 8 -1 9 -17 4 -19 -5
-21 -4 -9 4 18 13 36 8 32 -9z m-66 -28 c-17 -16 -18 -16 -5 5 7 12 15 20 18
17 3 -2 -3 -12 -13 -22z m54 -2 c0 -5 -7 -6 -17 -3 -10 4 -14 2 -9 -5 3 -6 0
-14 -8 -19 -8 -4 -15 -12 -15 -18 0 -5 -5 -11 -13 -13 -9 -2 -8 0 2 7 8 6 11
11 5 11 -5 0 -1 7 9 15 11 8 16 15 12 15 -4 0 -4 5 -1 10 8 13 35 13 35 0z
m40 -20 c0 -5 -6 -7 -14 -4 -11 4 -13 0 -9 -14 2 -11 1 -22 -4 -25 -6 -4 -9
33 -4 51 3 7 31 0 31 -8z m-51 -34 c-8 -6 -16 -20 -17 -30 -3 -17 -2 -18 12
-7 11 9 16 10 16 2 0 -6 -4 -11 -10 -11 -5 0 -13 0 -17 0 -14 0 -11 42 3 47 8
3 11 10 7 16 -4 6 -1 7 7 2 11 -7 10 -10 -1 -19z m42 -27 c-5 -13 -10 -19 -10
-12 -1 15 10 45 15 40 3 -2 0 -15 -5 -28z m-88 -4 c-3 -9 -8 -14 -10 -11 -3 3
-2 9 2 15 9 16 15 13 8 -4z m11 -37 c-3 -4 -9 -8 -15 -8 -5 0 -9 4 -9 8 0 5 7
9 15 9 8 0 12 -4 9 -9z m66 2 c0 -5 -4 -10 -10 -10 -5 0 -10 5 -10 10 0 6 5
10 10 10 6 0 10 -4 10 -10z m-37 -21 c-8 -8 -13 -7 -18 2 -5 8 -4 10 3 5 7 -4
12 -2 12 5 0 7 3 9 7 6 4 -4 2 -12 -4 -18z m-13 -19 c18 -12 2 -12 -25 0 -13
6 -15 9 -5 9 8 0 22 -4 30 -9z m70 -20 c0 -5 -4 -10 -10 -10 -5 0 -10 5 -10
10 0 6 5 10 10 10 6 0 10 -4 10 -10z m-28 -30 c-2 -8 4 -11 19 -7 16 4 19 3
11 -5 -13 -13 -46 -2 -36 13 4 8 -1 9 -17 4 -19 -5 -21 -4 -9 4 18 13 36 8 32
-9z m-66 -28 c-17 -16 -18 -16 -5 5 7 12 15 20 18 17 3 -2 -3 -12 -13 -22z
m54 -2 c0 -5 -7 -6 -17 -3 -10 4 -14 2 -9 -5 3 -6 0 -14 -8 -19 -8 -4 -15 -12
-15 -18 0 -5 -5 -11 -13 -13 -9 -2 -8 0 2 7 8 6 11 11 5 11 -5 0 -1 7 9 15 11
8 16 15 12 15 -4 0 -4 5 -1 10 8 13 35 13 35 0z m40 -20 c0 -5 -6 -7 -14 -4
-11 4 -13 0 -9 -14 2 -11 1 -22 -4 -25 -6 -4 -9 33 -4 51 3 7 31 0 31 -8z
m-51 -34 c-8 -6 -16 -20 -17 -30 -3 -17 -2 -18 12 -7 11 9 16 10 16 2 0 -6 -4
-11 -10 -11 -5 0 -13 0 -17 0 -14 0 -11 42 3 47 8 3 11 10 7 16 -4 6 -1 7 7 2
11 -7 10 -10 -1 -19z m42 -27 c-5 -13 -10 -19 -10 -12 -1 15 10 45 15 40 3 -2
0 -15 -5 -28z m-88 -4 c-3 -9 -8 -14 -10 -11 -3 3 -2 9 2 15 9 16 15 13 8 -4z
m-343 -19 c-7 -7 -13 -7 -20 0 -6 6 -3 10 10 10 13 0 16 -4 10 -10z m-34 -18
c3 -4 -1 -5 -10 -4 -8 1 -18 5 -22 8 -3 4 1 5 10 4 8 -1 18 -5 22 -8z m388 0
c-3 -4 -9 -8 -15 -8 -5 0 -9 4 -9 8 0 5 7 9 15 9 8 0 12 -4 9 -9z m66 2 c0 -5
-4 -10 -10 -10 -5 0 -10 5 -10 10 0 6 5 10 10 10 6 0 10 -4 10 -10z m-37 -21
c-8 -8 -13 -7 -18 2 -5 8 -4 10 3 5 7 -4 12 -2 12 5 0 7 3 9 7 6 4 -4 2 -12
-4 -18z m-362 -16 c8 -9 9 -14 2 -10 -6 4 -13 1 -16 -5 -3 -7 -4 -3 -4 10 1
26 1 26 18 5z m349 -3 c18 -12 2 -12 -25 0 -13 6 -15 9 -5 9 8 0 22 -4 30 -9z
m-320 -14 c0 -2 -8 -10 -17 -17 -16 -13 -17 -12 -4 4 13 16 21 21 21 13z m390
-6 c0 -5 -4 -10 -10 -10 -5 0 -10 5 -10 10 0 6 5 10 10 10 6 0 10 -4 10 -10z
m-28 -30 c-2 -8 4 -11 19 -7 16 4 19 3 11 -5 -13 -13 -46 -2 -36 13 4 8 -1 9
-17 4 -19 -5 -21 -4 -9 4 18 13 36 8 32 -9z m-66 -28 c-17 -16 -18 -16 -5 5 7
12 15 20 18 17 3 -2 -3 -12 -13 -22z m54 -2 c0 -5 -7 -6 -17 -3 -10 4 -14 2
-9 -5 4 -6 -3 -16 -16 -22 -22 -11 -22 -10 -4 4 11 9 16 16 12 16 -4 0 -4 5
-1 10 8 13 35 13 35 0z m40 -20 c0 -5 -6 -7 -14 -4 -11 4 -13 0 -9 -14 2 -11
1 -22 -4 -25 -6 -4 -9 33 -4 51 3 7 31 0 31 -8z m-45 -20 c3 -5 1 -10 -4 -10
-6 0 -11 5 -11 10 0 6 2 10 4 10 3 0 8 -4 11 -10z m-22 -28 c-2 -6 4 -12 12
-12 8 0 15 -5 15 -10 0 -7 -7 -7 -20 0 -11 6 -18 15 -15 20 3 5 -5 11 -17 13
-20 5 -20 5 2 3 14 -1 24 -7 23 -14z m58 -13 c-5 -13 -10 -19 -10 -12 -1 15
10 45 15 40 3 -2 0 -15 -5 -28z m-971 -24 c-18 -10 -19 -13 -7 -24 8 -6 21
-10 28 -9 8 2 13 -9 13 -31 1 -25 -4 -35 -17 -37 -9 -1 -17 2 -17 6 0 5 -8 7
-18 5 -11 -2 -19 3 -19 12 0 9 7 13 18 10 12 -3 16 0 12 9 -2 7 -12 10 -21 7
-15 -4 -15 -3 -2 6 13 9 13 11 0 11 -13 0 -13 1 0 10 13 9 13 10 0 11 -12 0
-12 2 -1 6 9 4 10 7 2 13 -7 3 2 7 20 7 29 0 30 -1 9 -12z m960 -15 c0 -5 -4
-10 -10 -10 -5 0 -10 5 -10 10 0 6 5 10 10 10 6 0 10 -4 10 -10z m-70 -34 c0
-3 -4 -8 -10 -11 -5 -3 -10 -1 -10 4 0 6 5 11 10 11 6 0 10 -2 10 -4z m45 -6
c17 -8 16 -8 -7 -7 -16 1 -28 5 -28 9 0 10 9 9 35 -2z m45 -20 c0 -5 -4 -10
-10 -10 -5 0 -10 5 -10 10 0 6 5 10 10 10 6 0 10 -4 10 -10z m-40 -20 c-8 -5
-19 -10 -25 -10 -5 0 -3 5 5 10 8 5 20 10 25 10 6 0 3 -5 -5 -10z m-40 -20 c0
-5 -2 -10 -4 -10 -3 0 -8 5 -11 10 -3 6 -1 10 4 10 6 0 11 -4 11 -10z m-775
-20 c3 -6 -1 -7 -9 -4 -18 7 -21 14 -7 14 6 0 13 -4 16 -10z m35 0 c0 -5 -4
-10 -10 -10 -5 0 -10 5 -10 10 0 6 5 10 10 10 6 0 10 -4 10 -10z m-23 -42 c-3
-8 -6 -5 -6 6 -1 11 2 17 5 13 3 -3 4 -12 1 -19z m38 -18 c-4 -6 -10 -8 -15
-5 -5 3 -11 -2 -13 -10 -3 -11 -4 -10 -3 2 1 10 8 17 15 15 8 -2 11 5 6 20 -5
20 -4 21 5 5 6 -9 8 -22 5 -27z m799 14 c3 -8 2 -12 -4 -9 -6 3 -10 10 -10 16
0 14 7 11 14 -7z m-775 -27 c-2 -1 -13 -9 -24 -17 -19 -14 -19 -14 -6 3 7 9
18 17 24 17 6 0 8 -1 6 -3z m701 -7 c0 -5 -5 -10 -11 -10 -5 0 -7 5 -4 10 3 6
8 10 11 10 2 0 4 -4 4 -10z m-302 -435 c4 -5 1 -5 -5 -1 -7 4 -13 3 -13 -3 0
-5 5 -11 12 -13 8 -3 6 -7 -5 -11 -9 -3 -16 -3 -14 1 1 4 -2 7 -8 7 -5 0 -9
-3 -7 -7 3 -10 -12 -10 -21 -1 -4 3 -1 13 6 21 10 13 9 14 -3 7 -15 -10 -20
-11 -42 -14 -9 -1 -8 -5 3 -14 9 -7 15 -23 14 -36 l-2 -23 19 23 c10 13 16 17
12 8 -3 -10 0 -20 6 -24 6 -4 11 -1 9 6 -3 27 1 35 21 36 14 1 19 -4 17 -18
-3 -19 -27 -50 -27 -35 0 5 -6 3 -14 -3 -10 -8 -16 -9 -21 -1 -3 6 -12 7 -18
3 -27 -17 -33 -9 -32 46 l0 56 53 -1 c29 0 56 -5 60 -9z m-69 -29 c9 -11 9
-16 -1 -22 -7 -4 -10 -4 -6 1 4 4 3 14 -3 22 -6 7 -9 13 -6 13 2 0 10 -6 16
-14z m105 -118 c-3 -4 -11 -8 -17 -7 -9 0 -9 2 0 5 7 3 9 13 6 22 -4 14 -3 14
5 2 6 -8 8 -18 6 -22z m32 -3 c-9 -7 -14 -14 -11 -16 2 -3 -6 -6 -17 -6 -20
-2 -20 -1 5 16 22 14 24 20 14 31 -10 12 -9 12 6 0 17 -13 17 -15 3 -25z m47
21 c4 -9 -5 -21 -21 -31 -26 -16 -27 -16 -6 2 11 10 19 24 16 31 -5 17 5 15
11 -2z m2 -55 c3 -5 0 -13 -6 -17 -8 -4 -9 -3 -5 4 4 7 2 12 -3 12 -6 0 -11
-5 -11 -12 0 -6 -3 -9 -6 -5 -7 7 4 27 16 27 5 0 11 -4 15 -9z m-61 -16 c3 -8
1 -15 -4 -15 -6 0 -10 7 -10 15 0 8 2 15 4 15 2 0 6 -7 10 -15z"/>
<path d="M2125 3472 c4 -7 2 -18 -4 -25 -6 -8 -6 -18 -1 -27 8 -12 10 -12 10
-1 0 7 6 11 14 8 20 -8 37 15 26 33 -5 8 -12 11 -17 7 -4 -5 -1 -12 6 -16 9
-6 10 -11 2 -15 -6 -4 -11 -3 -11 1 0 5 -7 18 -16 29 -8 10 -13 13 -9 6z"/>
<path d="M2679 3468 c11 -15 11 -18 0 -18 -11 0 -11 -2 1 -10 11 -7 11 -10 2
-10 -7 0 -10 -5 -7 -11 9 -13 15 -7 20 19 2 12 -4 27 -13 34 -15 12 -16 11 -3
-4z"/>
<path d="M3030 2936 c-9 -12 -8 -21 5 -43 9 -15 14 -19 10 -9 -6 19 -5 19 15
1 11 -10 20 -14 20 -8 0 11 -34 45 -41 41 -2 -2 2 2 9 9 8 6 9 14 4 17 -5 3
-15 -1 -22 -8z"/>
<path d="M2920 2145 c-10 -12 -10 -15 1 -15 12 0 12 -2 1 -9 -11 -7 -11 -9 0
-13 10 -4 14 3 13 23 0 34 1 33 -15 14z"/>
<path d="M3480 1490 c-11 -7 -11 -10 -2 -10 8 0 10 -5 6 -12 -4 -7 -3 -9 1 -5
7 6 17 37 12 37 -1 0 -9 -5 -17 -10z"/>
<path d="M3404 1476 c1 -8 5 -18 8 -22 4 -3 5 1 4 10 -1 8 -5 18 -8 22 -4 3
-5 -1 -4 -10z"/>
<path d="M545 3449 c22 -23 24 -24 22 -1 0 10 -9 19 -20 19 -18 2 -18 1 -2
-18z"/>
<path d="M583 3407 c-3 -6 5 -19 18 -30 13 -11 23 -23 22 -27 -1 -5 4 -10 11
-13 9 -4 13 4 14 24 0 16 -4 29 -9 29 -6 0 -7 -5 -3 -11 5 -8 1 -8 -14 0 -12
6 -24 17 -28 24 -6 9 -4 9 8 -1 15 -12 48 -7 48 7 0 11 -60 9 -67 -2z"/>
<path d="M2164 3393 c-4 -10 -8 -20 -9 -23 0 -3 -9 -19 -18 -37 -21 -39 -22
-49 -2 -33 8 7 12 16 9 21 -3 5 3 6 12 2 11 -4 13 -8 6 -11 -7 -2 -12 -8 -12
-13 0 -6 5 -7 12 -3 7 4 8 3 4 -4 -4 -6 -14 -8 -24 -5 -15 6 -15 5 -3 -10 7
-9 17 -15 21 -12 10 6 7 -15 -4 -34 -7 -11 -5 -13 10 -8 18 7 18 6 2 -6 -10
-8 -15 -17 -11 -20 3 -4 1 -7 -5 -7 -7 0 -12 -4 -12 -10 0 -5 7 -10 15 -10 8
0 14 3 14 8 -4 21 2 32 14 26 6 -4 9 -4 5 1 -4 4 -3 14 3 21 8 10 8 15 -3 19
-16 6 -21 42 -7 51 6 4 6 11 -2 20 -9 11 -9 14 1 14 8 0 10 3 7 6 -3 4 -2 15
3 25 7 12 7 20 0 24 -6 4 -8 11 -5 16 4 5 2 9 -3 9 -6 0 -13 -8 -18 -17z m20
-11 c3 -5 -1 -9 -9 -9 -8 0 -12 4 -9 9 3 4 7 8 9 8 2 0 6 -4 9 -8z m-10 -37
c-7 -16 -24 -21 -24 -6 0 8 7 13 27 20 1 1 0 -6 -3 -14z"/>
<path d="M2089 3350 c-7 -5 -10 -12 -6 -17 5 -4 12 -1 17 7 7 11 9 9 7 -8 -1
-12 -6 -21 -12 -18 -7 2 -10 -368 -10 -1200 0 -661 2 -1201 4 -1198 5 4 11 52
13 91 0 12 6 24 14 27 7 3 11 12 8 21 -3 8 -10 12 -15 9 -5 -3 -7 -9 -4 -14 3
-5 2 -11 -3 -14 -4 -2 -9 4 -9 15 -1 10 3 19 9 19 6 0 5 7 -3 17 -8 10 -9 14
-2 10 8 -5 11 0 10 13 -1 11 -4 20 -7 20 -3 0 -6 9 -7 20 -1 13 2 18 10 13 7
-4 6 0 -2 10 -10 13 -10 17 -1 17 9 0 9 4 -1 17 -8 9 -9 14 -3 10 19 -11 25
21 6 33 -13 9 -14 11 -1 7 9 -3 16 1 16 8 0 7 -6 11 -14 8 -15 -6 -18 13 -3
22 6 3 10 11 10 16 0 6 -5 7 -12 3 -7 -4 -8 -3 -4 5 4 6 12 8 18 5 7 -4 8 -2
4 5 -4 6 -11 9 -15 7 -4 -3 -8 1 -8 9 0 10 4 12 12 5 7 -5 15 -7 18 -3 9 9 9
23 0 22 -20 -3 -33 2 -33 12 0 8 5 8 15 -1 17 -15 19 -7 5 21 -8 13 -7 25 0
39 8 16 8 22 -3 26 -7 2 -13 18 -13 34 0 16 3 27 8 24 5 -3 6 -10 3 -15 -4 -5
-2 -16 3 -25 6 -11 11 -13 16 -5 4 6 2 11 -5 11 -8 0 -8 4 1 15 10 12 9 16 -4
21 -23 9 -20 24 4 19 14 -3 18 0 13 8 -4 7 -8 15 -8 19 0 15 -15 20 -15 5 0
-9 -4 -18 -9 -22 -6 -3 -9 4 -8 15 1 11 4 20 8 20 8 0 6 20 -3 36 -7 11 -3 13
45 17 16 1 33 10 39 21 8 14 7 17 -1 12 -18 -11 -13 5 7 21 9 8 11 12 5 8 -24
-12 -33 5 -16 31 9 14 12 24 7 23 -27 -5 -36 1 -24 16 7 8 9 15 5 15 -5 0 -1
8 8 18 13 15 14 21 4 31 -6 6 -12 17 -12 23 0 6 -10 12 -23 13 -20 2 -21 0 -7
-15 8 -9 12 -20 8 -23 -3 -4 0 -7 8 -7 8 0 1 -11 -16 -25 -16 -13 -25 -24 -19
-25 5 0 15 5 21 11 8 8 13 7 18 -2 6 -8 4 -10 -5 -4 -9 6 -11 4 -5 -5 6 -9 4
-11 -6 -5 -12 8 -12 6 0 -8 10 -13 10 -17 1 -17 -9 0 -10 -3 -1 -13 6 -8 8
-17 4 -20 -3 -4 -1 -7 4 -7 6 0 10 -11 9 -25 -2 -13 1 -22 5 -19 5 3 9 0 9 -6
0 -7 -6 -10 -12 -7 -7 2 -12 11 -10 20 1 9 -4 14 -12 13 -19 -3 -33 -16 -18
-16 21 0 13 -16 -8 -17 -11 -1 -20 3 -20 8 0 6 4 8 9 4 6 -3 8 4 5 17 -11 45
-12 68 -5 68 4 0 8 7 8 15 0 8 -5 15 -11 15 -6 0 -4 5 4 10 13 9 13 10 0 10
-11 1 -11 3 3 11 18 10 18 12 1 30 -9 11 -14 22 -11 26 4 3 7 1 7 -6 0 -7 5
-9 10 -6 7 4 7 13 0 26 -8 13 -7 25 0 39 8 16 8 22 -3 26 -7 2 -13 18 -13 34
0 16 3 27 8 24 5 -3 6 -10 3 -15 -4 -5 -2 -16 3 -25 6 -11 11 -13 16 -5 4 6 2
11 -4 11 -6 0 -8 5 -3 13 13 20 12 36 -2 31 -7 -3 -16 -1 -20 5 -3 6 -1 11 6
11 8 0 7 5 -2 17 -8 10 -9 14 -2 10 8 -5 11 0 10 13 -1 11 -4 20 -7 20 -3 0
-6 9 -7 20 -1 13 2 18 10 13 7 -4 6 0 -2 10 -10 13 -10 17 -1 17 9 0 9 4 -1
17 -8 9 -9 14 -3 10 19 -11 25 21 6 33 -13 9 -14 11 -1 7 9 -3 16 1 16 8 0 7
-6 11 -14 8 -15 -6 -18 13 -3 22 6 3 10 11 10 16 0 6 -5 7 -12 3 -7 -4 -8 -3
-4 5 4 6 12 8 18 5 7 -4 8 -2 4 5 -4 6 -11 9 -15 7 -4 -3 -8 1 -8 9 0 10 4 12
12 5 7 -5 15 -7 18 -3 9 9 9 23 0 22 -20 -3 -33 2 -33 12 0 8 5 8 15 -1 17
-15 19 -7 5 21 -8 13 -7 25 0 39 8 16 8 22 -3 26 -8 3 -13 20 -13 43 0 29 4
37 14 33 12 -4 12 -1 3 16 -9 16 -9 28 -1 42 8 16 8 22 -3 26 -7 2 -13 18 -13
34 0 16 3 27 8 24 5 -3 6 -10 3 -15 -4 -5 -2 -16 3 -25 6 -11 11 -13 16 -5 4
6 2 11 -4 11 -6 0 -8 5 -3 13 13 20 12 36 -2 31 -7 -3 -16 -1 -20 5 -3 6 -1
11 6 11 8 0 7 5 -2 17 -8 10 -9 14 -2 10 8 -5 11 0 10 13 -1 11 -4 20 -7 20
-3 0 -6 9 -7 20 -1 13 2 18 10 13 7 -4 6 0 -2 10 -10 13 -10 17 -1 17 9 0 9 4
-1 17 -8 9 -9 14 -3 10 19 -11 25 21 6 33 -13 9 -14 11 -1 7 9 -3 16 1 16 8 0
7 -6 11 -14 8 -15 -6 -18 13 -3 22 6 3 10 11 10 16 0 6 -5 7 -12 3 -7 -4 -8
-3 -4 5 4 6 12 8 18 5 7 -4 8 -2 4 5 -4 6 -11 9 -15 7 -4 -3 -8 1 -8 9 0 10 4
12 12 5 7 -5 15 -7 18 -3 9 9 9 23 0 22 -20 -3 -33 2 -33 12 0 8 5 8 15 -1 17
-15 19 -7 5 21 -8 13 -7 25 0 39 8 16 8 22 -3 26 -8 3 -13 20 -13 43 0 35 2
37 26 34 14 -2 30 -5 37 -5 7 -1 10 -5 7 -9 -2 -5 -12 -5 -22 -2 -15 6 -15 5
-3 -10 7 -9 17 -15 21 -12 10 6 7 -15 -4 -34 -7 -11 -5 -13 10 -8 18 7 18 6 2
-6 -10 -8 -15 -17 -11 -20 3 -4 1 -7 -5 -7 -7 0 -12 -4 -12 -10 0 -5 7 -10 15
-10 8 0 14 3 14 8 -4 21 2 32 14 26 6 -4 9 -4 5 1 -4 4 -3 14 3 21 8 10 8 15
-3 19 -9 4 -14 16 -14 28 3 28 -11 47 -28 41 -15 -6 -17 47 -3 57 5 3 2 9 -6
12 -10 4 -14 0 -12 -11 1 -9 -3 -20 -9 -24 -8 -6 -7 -11 3 -17 8 -5 9 -11 3
-15 -15 -9 -23 23 -12 45 8 14 7 21 -3 25 -7 2 -13 18 -13 34 0 16 3 27 8 24
5 -3 6 -10 3 -15 -4 -5 -2 -16 3 -25 6 -11 11 -13 16 -5 4 6 2 11 -4 11 -6 0
-8 5 -4 11 4 8 9 7 15 -2 4 -7 5 -17 3 -21 -3 -4 -1 -8 5 -8 23 0 19 20 -9 43
-17 15 -26 29 -20 32 6 4 8 11 5 16 -4 5 -1 9 4 9 6 0 11 4 11 9 0 14 -25 20
-41 11z m85 -1519 c3 -5 -2 -15 -12 -22 -15 -12 -16 -12 -5 2 7 9 10 19 6 22
-3 4 -4 7 0 7 3 0 8 -4 11 -9z m-4 -91 c0 -5 -2 -10 -4 -10 -3 0 -8 5 -11 10
-3 6 -1 10 4 10 6 0 11 -4 11 -10z"/>
<path d="M2775 3320 c3 -5 8 -10 11 -10 2 0 4 5 4 10 0 6 -5 10 -11 10 -5 0
-7 -4 -4 -10z"/>
<path d="M2830 3306 c0 -2 7 -7 16 -10 8 -3 12 -2 9 4 -6 10 -25 14 -25 6z"/>
<path d="M2115 3132 c-15 -11 -16 -31 -3 -55 16 -28 16 -40 3 -49 -6 -5 -5
-11 5 -18 8 -5 11 -10 7 -10 -4 0 -3 -9 3 -21 8 -14 8 -24 1 -33 -6 -7 -8 -16
-4 -19 3 -4 -2 -16 -13 -28 -14 -15 -15 -20 -4 -17 10 2 15 -4 14 -19 -1 -19
1 -21 18 -12 11 6 22 8 26 5 3 -3 -1 -6 -9 -6 -12 0 -11 -2 1 -11 13 -9 13
-10 0 -8 -29 3 -41 -1 -35 -11 3 -5 0 -10 -7 -10 -7 -1 -1 -8 15 -16 15 -8 27
-17 27 -20 0 -3 -5 -2 -12 2 -7 4 -8 3 -4 -5 4 -6 3 -18 -3 -25 -9 -10 -7 -16
6 -21 10 -5 21 -8 25 -7 4 1 5 -5 1 -14 -5 -13 -8 -13 -15 -2 -7 10 -8 8 -4
-5 4 -12 2 -16 -6 -11 -7 5 -8 2 -3 -7 5 -8 4 -11 0 -6 -9 7 -15 36 -16 70 0
9 -4 17 -10 17 -5 0 -8 -11 -7 -25 1 -14 6 -25 11 -25 4 0 5 -6 0 -12 -13 -21
-12 -37 2 -32 7 3 16 0 20 -5 3 -6 11 -8 17 -5 7 4 8 2 4 -4 -4 -6 -13 -9 -21
-6 -10 4 -13 -2 -11 -20 2 -15 0 -29 -4 -31 -5 -3 -7 -13 -6 -23 2 -9 -2 -20
-8 -24 -7 -6 -8 -10 -1 -15 13 -10 13 -31 0 -41 -15 -11 -16 -31 -3 -55 16
-28 16 -40 3 -49 -6 -5 -5 -11 5 -18 8 -5 11 -10 7 -10 -4 0 -3 -9 3 -21 8
-14 8 -24 1 -33 -6 -7 -8 -16 -4 -19 3 -4 -2 -16 -13 -28 -14 -15 -15 -20 -4
-17 10 2 15 -4 14 -19 -1 -19 1 -21 18 -12 11 6 22 8 26 5 3 -3 -1 -6 -9 -6
-12 0 -11 -2 1 -11 13 -9 13 -10 0 -8 -29 3 -41 -1 -35 -11 3 -5 0 -10 -7 -10
-7 -1 -1 -8 15 -16 15 -8 27 -17 27 -20 0 -3 -5 -2 -12 2 -7 4 -8 3 -4 -5 4
-6 3 -18 -3 -25 -9 -10 -7 -16 6 -21 10 -5 21 -8 25 -7 4 1 5 -5 1 -14 -5 -13
-8 -13 -15 -2 -7 10 -8 8 -4 -5 4 -12 2 -16 -6 -11 -7 5 -8 2 -3 -7 5 -8 4
-11 0 -6 -9 7 -15 36 -16 70 0 9 -4 17 -10 17 -5 0 -8 -11 -7 -25 1 -14 6 -25
11 -25 4 0 5 -6 0 -12 -13 -21 -12 -37 2 -32 7 3 16 0 20 -5 3 -6 11 -8 17 -5
7 4 8 2 4 -4 -4 -6 -13 -9 -21 -6 -10 4 -13 -2 -11 -20 2 -15 0 -29 -4 -31 -5
-3 -7 -13 -6 -23 2 -9 -2 -20 -8 -24 -8 -6 -7 -11 3 -17 14 -9 51 -4 49 8 -2
21 3 31 15 25 6 -4 9 -4 5 1 -4 4 -3 14 3 21 8 10 8 15 -3 19 -16 6 -21 42 -7
51 6 4 6 11 -2 20 -9 11 -9 14 1 14 8 0 10 3 7 6 -3 4 -2 16 4 27 7 11 7 17 1
13 -14 -8 -31 16 -27 39 2 11 4 24 4 28 1 5 6 5 13 1 7 -5 8 -3 2 7 -15 24
-14 41 3 35 13 -5 14 -4 3 9 -7 8 -9 15 -5 15 4 0 3 6 -2 13 -13 16 -13 47 0
47 6 0 7 3 4 6 -3 4 -2 16 4 27 7 11 7 17 1 13 -5 -3 -15 1 -22 9 -6 7 -17 12
-24 9 -8 -3 -12 6 -12 26 0 16 4 30 10 30 6 0 3 5 -7 11 -9 6 -15 14 -12 20 4
5 1 9 -5 9 -7 0 -8 5 -3 13 4 6 8 17 8 22 0 6 10 11 22 11 12 1 20 -2 17 -7
-2 -4 -12 -5 -22 -2 -15 6 -15 5 -3 -10 7 -9 17 -15 21 -12 10 6 7 -15 -4 -34
-7 -11 -5 -13 10 -8 18 7 18 6 2 -6 -10 -8 -15 -17 -11 -20 3 -4 1 -7 -5 -7
-7 0 -12 -4 -12 -10 0 -5 7 -10 15 -10 8 0 14 3 14 8 -4 21 2 32 14 26 6 -4 9
-4 5 1 -4 4 -3 14 3 21 8 10 8 15 -3 19 -9 4 -14 16 -14 28 3 27 -11 47 -28
41 -8 -3 -12 6 -12 26 0 30 9 39 21 20 3 -5 1 -10 -4 -10 -6 0 -11 -4 -11 -10
0 -5 7 -10 15 -10 8 0 14 3 14 8 -4 21 2 32 14 26 6 -4 9 -4 5 1 -4 4 -3 14 3
21 8 10 8 15 -3 19 -16 6 -21 42 -7 51 6 4 6 11 -2 20 -9 11 -9 14 1 14 8 0
10 3 7 6 -3 4 -2 16 4 27 7 11 7 17 1 13 -14 -8 -31 16 -27 39 2 11 4 24 4 28
1 5 6 5 13 1 7 -5 8 -3 2 7 -15 24 -14 41 3 35 13 -5 14 -4 3 9 -7 8 -9 15 -5
15 4 0 3 6 -2 13 -13 16 -13 47 0 47 6 0 7 3 4 6 -3 4 -2 16 4 27 7 11 7 17 1
13 -5 -3 -15 1 -22 9 -6 7 -17 12 -24 9 -8 -3 -12 6 -12 26 0 16 4 30 10 30 6
0 3 5 -7 11 -9 6 -15 14 -12 20 4 5 1 9 -5 9 -6 0 -8 5 -4 11 4 8 9 7 15 -2 4
-7 5 -17 3 -21 -3 -4 -1 -8 5 -8 20 0 20 18 1 35 -11 10 -17 22 -14 26 6 11 2
11 -11 1z m48 -169 c-5 -11 -3 -14 6 -8 10 6 11 3 2 -14 -7 -11 -9 -21 -5 -21
3 0 1 -6 -5 -14 -9 -11 -9 -15 1 -19 8 -2 9 -8 4 -13 -5 -5 -11 -4 -13 4 -3 6
-9 10 -13 7 -19 -12 -18 13 0 30 25 22 27 43 3 24 -16 -13 -17 -12 -5 2 7 9
12 21 11 25 -3 18 1 25 11 19 5 -3 6 -13 3 -22z m0 -146 c7 3 8 2 4 -2 -14
-16 -36 -14 -29 3 4 10 7 12 10 4 2 -7 9 -9 15 -5z m2 -77 c3 -5 1 -10 -4 -10
-6 0 -11 5 -11 10 0 6 2 10 4 10 3 0 8 -4 11 -10z m9 -68 c3 -5 -1 -9 -9 -9
-8 0 -12 4 -9 9 3 4 7 8 9 8 2 0 6 -4 9 -8z m-8 -56 c-1 -6 -5 -17 -9 -23 -10
-15 4 -17 21 -3 7 5 6 3 -1 -5 -8 -10 -20 -13 -31 -9 -17 6 -17 8 -2 16 12 7
14 13 7 22 -8 9 -7 13 3 13 8 0 13 -5 12 -11z m-3 -293 c-5 -11 -3 -14 6 -8
10 6 11 3 2 -14 -7 -11 -9 -21 -5 -21 3 0 1 -6 -5 -14 -9 -11 -9 -15 1 -19 8
-2 9 -8 4 -13 -5 -5 -11 -4 -13 4 -3 6 -9 10 -13 7 -19 -12 -18 13 0 30 25 22
27 43 3 24 -16 -13 -17 -12 -5 2 7 9 12 21 11 25 -3 18 1 25 11 19 5 -3 6 -13
3 -22z m0 -146 c7 3 8 2 4 -2 -14 -16 -36 -14 -29 3 4 10 7 12 10 4 2 -7 9 -9
15 -5z m2 -77 c3 -5 1 -10 -4 -10 -6 0 -11 5 -11 10 0 6 2 10 4 10 3 0 8 -4
11 -10z m9 -68 c3 -5 -1 -9 -9 -9 -8 0 -12 4 -9 9 3 4 7 8 9 8 2 0 6 -4 9 -8z
m-8 -56 c-1 -6 -5 -17 -9 -23 -9 -14 3 -17 19 -5 5 4 2 0 -8 -9 -9 -9 -16 -18
-14 -20 2 -2 -2 -10 -9 -16 -11 -10 -13 -9 -12 7 1 11 6 20 12 20 5 0 4 4 -3
9 -11 6 -10 10 3 15 13 5 15 9 6 19 -8 10 -7 14 3 14 8 0 13 -5 12 -11z"/>
<path d="M2139 2903 c-13 -16 -12 -17 4 -4 9 7 17 15 17 17 0 8 -8 3 -21 -13z"/>
<path d="M2139 2263 c-13 -16 -12 -17 4 -4 9 7 17 15 17 17 0 8 -8 3 -21 -13z"/>
<path d="M623 3059 c2 -27 25 -31 25 -5 0 13 -6 23 -14 23 -7 0 -12 -8 -11
-18z"/>
<path d="M3150 2842 c-8 -10 -16 -29 -16 -44 l-2 -28 19 23 c19 21 19 21 17 2
-2 -11 -11 -25 -22 -31 -13 -8 -15 -13 -7 -18 6 -4 11 -2 11 5 0 8 4 8 13 1
10 -9 12 -3 10 31 -2 23 -3 50 -4 60 0 20 0 20 -19 -1z m10 -22 c0 -5 -5 -10
-11 -10 -5 0 -7 5 -4 10 3 6 8 10 11 10 2 0 4 -4 4 -10z"/>
<path d="M3218 2848 c5 -5 16 -8 23 -6 8 3 3 7 -10 11 -17 4 -21 3 -13 -5z"/>
<path d="M2110 2781 c0 -5 7 -11 14 -14 10 -4 13 -1 9 9 -6 15 -23 19 -23 5z"/>
<path d="M2133 2451 c1 -22 12 -28 21 -12 3 5 -1 14 -9 21 -11 9 -14 8 -12 -9z"/>
<path d="M2777 2259 c4 -13 8 -18 11 -10 2 7 -1 18 -6 23 -8 8 -9 4 -5 -13z"/>
<path d="M2821 2264 c0 -11 3 -14 6 -6 3 7 2 16 -1 19 -3 4 -6 -2 -5 -13z"/>
<path d="M3586 2238 c3 -5 10 -6 15 -3 13 9 11 12 -6 12 -8 0 -12 -4 -9 -9z"/>
<path d="M2784 2222 c4 -3 14 -7 22 -8 9 -1 13 0 10 4 -4 3 -14 7 -22 8 -9 1
-13 0 -10 -4z"/>
<path d="M3739 2208 c-5 -18 -6 -38 -1 -34 7 8 12 36 6 36 -2 0 -4 -1 -5 -2z"/>
<path d="M3659 2173 c-13 -17 -13 -17 5 -3 18 13 19 13 14 -1 -4 -9 -1 -16 7
-16 7 0 10 8 7 19 -6 23 -16 23 -33 1z"/>
<path d="M2966 2153 c-6 -14 -5 -15 5 -6 7 7 10 15 7 18 -3 3 -9 -2 -12 -12z"/>
<path d="M2110 2141 c0 -5 7 -11 14 -14 10 -4 13 -1 9 9 -6 15 -23 19 -23 5z"/>
<path d="M3655 2100 c-3 -5 -1 -10 4 -10 6 0 11 5 11 10 0 6 -2 10 -4 10 -3 0
-8 -4 -11 -10z"/>
<path d="M2116 1851 c-4 -5 -2 -13 4 -16 8 -5 7 -12 -2 -23 -11 -15 -11 -15 4
-4 15 12 18 35 6 47 -3 4 -9 2 -12 -4z"/>
<path d="M2113 1764 c3 -3 2 -16 -3 -28 -5 -13 -4 -29 1 -37 7 -12 9 -12 9 1
0 13 1 13 10 0 8 -12 9 -10 7 7 -2 12 -6 25 -9 29 -4 3 -4 12 -1 20 3 8 -1 14
-8 14 -7 0 -10 -3 -6 -6z"/>
<path d="M3255 1661 c-3 -5 -2 -12 3 -15 5 -3 9 1 9 9 0 17 -3 19 -12 6z"/>
<path d="M3295 1659 c-3 -4 2 -6 10 -5 21 3 28 13 10 13 -9 0 -18 -4 -20 -8z"/>
<path d="M3319 1633 c-13 -16 -12 -17 4 -4 16 13 21 21 13 21 -2 0 -10 -8 -17
-17z"/>
<path d="M2119 1629 c-12 -7 -11 -9 1 -9 12 0 12 -2 2 -9 -10 -6 -10 -10 2
-21 9 -7 13 -16 10 -21 -3 -5 2 -12 10 -15 9 -3 13 -10 10 -16 -3 -5 -13 -7
-21 -3 -11 4 -13 2 -7 -7 10 -14 11 -37 3 -53 -3 -5 -5 -17 -4 -25 0 -8 -4
-18 -10 -22 -6 -5 -5 -11 5 -18 8 -5 11 -10 7 -10 -4 0 -3 -9 3 -21 8 -14 8
-24 1 -33 -6 -7 -8 -16 -4 -19 3 -4 -2 -16 -13 -28 -14 -15 -15 -20 -4 -17 10
2 15 -4 14 -19 -1 -19 1 -21 18 -12 11 6 22 8 26 5 3 -3 -1 -6 -9 -6 -12 0
-11 -2 1 -11 13 -9 13 -10 0 -8 -29 3 -41 -1 -35 -11 3 -5 0 -10 -7 -10 -7 -1
-1 -8 15 -16 15 -8 27 -17 27 -20 0 -3 -5 -2 -12 2 -7 4 -8 3 -4 -5 4 -6 3
-18 -3 -25 -9 -10 -7 -16 6 -21 10 -5 21 -8 25 -7 4 1 5 -5 1 -14 -5 -13 -7
-13 -15 -2 -5 8 -6 0 -3 -22 4 -31 4 -32 -7 -15 -12 20 -18 45 -19 78 0 9 -4
17 -10 17 -5 0 -8 -11 -7 -25 1 -14 6 -25 11 -25 5 0 4 -7 -3 -15 -10 -12 -9
-16 4 -21 9 -3 13 -10 10 -15 -3 -5 0 -9 5 -9 6 0 11 -5 11 -11 0 -5 -4 -8 -9
-5 -5 3 -14 -1 -21 -9 -10 -12 -10 -15 0 -15 9 0 10 -3 1 -13 -6 -8 -8 -17 -4
-20 3 -4 2 -7 -4 -7 -9 0 -10 -18 -4 -52 2 -14 38 -9 51 7 7 8 16 12 21 9 5
-3 9 0 9 6 0 7 -7 10 -14 7 -10 -4 -13 -1 -9 8 3 8 8 13 12 11 4 -3 7 4 7 14
0 10 -5 16 -12 13 -7 -3 -10 8 -8 34 6 60 7 63 17 63 6 0 7 3 4 6 -3 4 -2 16
4 27 7 11 7 17 1 13 -14 -8 -31 16 -27 39 2 11 4 24 4 28 1 5 6 5 13 1 7 -5 8
-3 2 7 -15 24 -14 41 3 35 13 -5 14 -4 3 9 -7 8 -9 15 -5 15 4 0 3 6 -2 13
-13 16 -13 47 0 47 6 0 7 3 4 6 -3 4 -2 16 4 27 7 11 7 17 1 13 -5 -3 -15 1
-22 9 -6 7 -17 12 -24 9 -8 -3 -12 6 -12 26 0 30 9 39 21 20 3 -5 1 -10 -4
-10 -6 0 -11 -4 -11 -10 0 -5 7 -10 15 -10 8 0 14 3 14 8 -4 21 2 32 14 26 6
-4 9 -4 5 1 -4 4 -3 14 3 21 8 10 7 15 -4 20 -9 3 -14 15 -12 30 1 13 -2 27
-6 30 -5 3 -1 16 8 30 9 14 12 24 7 23 -26 -5 -36 1 -25 15 9 11 7 15 -8 19
-10 2 -25 1 -32 -4z m26 -20 c-4 -5 1 -12 9 -15 9 -3 16 -10 16 -15 0 -5 -9
-4 -19 3 -11 6 -19 20 -18 29 1 10 5 15 9 13 5 -3 6 -10 3 -15z m21 -113 c-1
-6 -5 -17 -9 -23 -10 -15 4 -17 21 -3 7 5 6 3 -1 -5 -8 -10 -20 -13 -31 -9
-17 6 -17 8 -2 16 12 7 14 13 7 22 -8 9 -7 13 3 13 8 0 13 -5 12 -11z m-3
-133 c-5 -11 -3 -14 6 -8 10 6 11 3 2 -14 -7 -11 -9 -21 -5 -21 3 0 1 -6 -5
-14 -9 -11 -9 -15 1 -19 8 -2 9 -8 4 -13 -5 -5 -11 -4 -13 4 -3 6 -9 10 -13 7
-19 -12 -18 13 0 30 25 22 27 43 3 24 -16 -13 -17 -12 -5 2 7 9 12 21 11 25
-3 18 1 25 11 19 5 -3 6 -13 3 -22z m0 -146 c7 3 8 2 4 -2 -14 -16 -36 -14
-29 3 4 10 7 12 10 4 2 -7 9 -9 15 -5z m2 -77 c3 -5 1 -10 -4 -10 -6 0 -11 5
-11 10 0 6 2 10 4 10 3 0 8 -4 11 -10z m-10 -131 c-2 -10 1 -21 6 -24 15 -10
0 -25 -19 -18 -15 6 -15 4 2 -15 11 -12 16 -23 13 -23 -38 -7 -51 -3 -40 14 4
7 8 20 8 30 0 10 7 22 15 27 10 7 11 10 3 10 -7 0 -13 4 -13 8 0 5 6 9 14 9 8
0 13 -8 11 -18z"/>
<path d="M2139 1303 c-13 -16 -12 -17 4 -4 9 7 17 15 17 17 0 8 -8 3 -21 -13z"/>
<path d="M2130 986 c0 -2 7 -7 16 -10 8 -3 12 -2 9 4 -6 10 -25 14 -25 6z"/>
<path d="M2126 942 c-3 -5 1 -9 9 -9 8 0 12 4 9 9 -3 4 -7 8 -9 8 -2 0 -6 -4
-9 -8z"/>
<path d="M3290 1626 c0 -8 4 -17 9 -20 5 -4 7 3 4 14 -6 23 -13 26 -13 6z"/>
<path d="M3256 1622 c-3 -5 1 -9 9 -9 8 0 12 4 9 9 -3 4 -7 8 -9 8 -2 0 -6 -4
-9 -8z"/>
<path d="M3299 1573 c-13 -17 -13 -17 6 -3 11 8 22 16 24 17 2 2 0 3 -6 3 -6
0 -17 -8 -24 -17z"/>
<path d="M635 1562 c-16 -11 -17 -39 -1 -39 7 0 14 10 14 24 0 13 -1 23 -2 23
0 0 -5 -4 -11 -8z"/>
<path d="M1860 1424 c0 -2 12 -15 26 -29 14 -14 23 -29 19 -33 -3 -4 -14 4
-24 16 -11 15 -23 21 -34 16 -14 -5 -15 -9 -6 -20 6 -8 18 -13 27 -12 8 2 17
-2 19 -9 4 -12 -26 -11 -45 1 -5 3 -9 -1 -9 -8 0 -9 10 -13 24 -11 14 1 22 -2
20 -9 -2 -6 -11 -11 -20 -11 -8 0 -19 -4 -24 -9 -4 -5 -3 -6 5 -2 6 4 12 3 12
-1 0 -5 -6 -15 -12 -23 -11 -12 -10 -12 4 -1 9 7 22 10 28 6 15 -9 12 -25 -3
-19 -8 3 -19 -1 -25 -9 -9 -11 -8 -14 6 -14 9 0 23 4 30 10 16 13 15 -3 -2
-25 -14 -19 -32 -25 -21 -8 3 6 1 10 -5 10 -7 0 -10 -6 -7 -12 2 -7 12 -13 22
-13 10 0 20 -5 22 -12 4 -12 -26 -11 -45 1 -5 3 -9 -1 -9 -8 0 -9 10 -13 24
-11 14 1 22 -2 20 -9 -2 -6 -11 -11 -20 -11 -8 0 -19 -4 -24 -9 -4 -5 -3 -6 5
-2 6 4 12 3 12 -1 0 -5 -6 -15 -12 -23 -11 -12 -10 -12 4 -1 9 7 22 10 28 6
15 -9 12 -25 -3 -19 -8 3 -19 -1 -25 -9 -9 -11 -8 -14 6 -14 9 0 23 4 30 10
16 13 15 -3 -2 -25 -14 -19 -32 -25 -21 -8 3 6 2 10 -4 10 -18 0 -21 -18 -4
-24 11 -5 23 1 34 16 10 12 21 20 24 16 4 -4 -5 -19 -19 -33 -21 -20 -30 -24
-40 -16 -11 9 -13 6 -12 -11 0 -13 8 -28 16 -35 8 -6 15 -22 15 -35 0 -14 6
-23 15 -23 8 0 14 8 14 18 -2 19 -2 19 20 11 9 -3 16 -10 16 -16 0 -5 -4 -7
-9 -4 -5 3 -11 0 -14 -7 -3 -8 1 -14 9 -14 15 0 28 28 29 64 1 15 -4 20 -18
17 -11 -2 -17 2 -14 9 2 7 11 11 19 9 8 -1 15 4 15 12 0 11 -5 12 -17 6 -17
-9 -30 -4 -30 11 0 5 6 6 14 3 17 -7 29 11 31 47 1 22 -2 26 -17 24 -12 -3
-18 1 -15 8 2 7 11 11 19 9 8 -1 15 4 15 12 0 8 -7 11 -19 8 -10 -2 -18 1 -18
7 0 7 4 10 9 6 5 -3 13 0 17 7 10 17 12 68 2 62 -15 -9 -55 41 -52 67 1 13 3
27 3 32 1 4 13 15 29 25 15 9 28 23 30 30 1 8 -2 11 -9 6 -8 -4 -9 1 -4 17 l8
24 -22 -25 -22 -25 5 25 c3 14 3 19 0 13 -3 -7 -10 -13 -15 -13 -6 0 -8 4 -5
8 3 5 -1 9 -9 9 -8 0 -15 -2 -15 -3z m10 -44 c0 -5 -4 -10 -10 -10 -5 0 -10 5
-10 10 0 6 5 10 10 10 6 0 10 -4 10 -10z m60 0 c0 -5 -4 -10 -10 -10 -5 0 -10
5 -10 10 0 6 5 10 10 10 6 0 10 -4 10 -10z m-6 -156 c9 -8 16 -18 16 -22 0
-13 -17 -34 -26 -33 -5 1 -9 -12 -9 -29 0 -16 4 -29 8 -27 13 3 28 -30 21 -47
-7 -18 -24 -22 -24 -6 0 6 6 10 13 10 7 0 6 4 -4 10 -9 5 -24 21 -33 35 -16
24 -16 27 4 55 13 18 26 27 33 23 7 -4 5 2 -3 13 -22 29 -24 30 -17 12 7 -19
-8 -25 -18 -8 -7 12 2 30 15 30 5 0 16 -7 24 -16z m-19 -217 c0 -9 4 -16 9
-16 10 1 26 -21 26 -35 0 -4 -11 -1 -25 8 -16 11 -25 12 -25 5 0 -8 -5 -8 -16
1 -17 15 -41 56 -27 47 5 -3 15 -2 23 3 20 13 35 7 35 -13z m-15 -67 c0 -5 -4
-10 -10 -10 -5 0 -10 5 -10 10 0 6 5 10 10 10 6 0 10 -4 10 -10z"/>
<path d="M1874 1009 c-3 -6 -1 -16 4 -21 8 -8 11 -5 9 11 -1 24 -3 25 -13 10z"/>
<path d="M1936 1351 c-4 -5 -4 -16 -1 -23 4 -9 0 -15 -10 -15 -9 0 -14 6 -11
14 3 8 2 12 -3 9 -14 -9 -7 -66 9 -76 21 -13 27 -12 27 4 0 8 -8 11 -19 8 -10
-2 -18 1 -18 7 0 7 4 10 9 6 13 -7 24 13 26 47 2 30 0 34 -9 19z"/>
<path d="M3510 1308 c0 -4 7 -8 15 -8 8 0 15 4 15 8 0 5 -7 9 -15 9 -8 0 -15
-4 -15 -9z"/>
<path d="M2110 1181 c0 -5 7 -11 14 -14 10 -4 13 -1 9 9 -6 15 -23 19 -23 5z"/>
<path d="M3833 1012 c2 -12 6 -24 10 -28 3 -4 4 4 2 16 -6 30 -16 40 -12 12z"/>
<path d="M3790 1006 c0 -2 7 -7 16 -10 8 -3 12 -2 9 4 -6 10 -25 14 -25 6z"/>
<path d="M3775 979 c-6 -8 -4 -10 5 -4 10 6 12 4 6 -11 -6 -15 -5 -17 5 -6 9
9 10 15 2 23 -8 8 -13 7 -18 -2z"/>
<path d="M3837 935 c-4 -8 -3 -16 1 -19 4 -3 9 4 9 15 2 23 -3 25 -10 4z"/>
<path d="M3876 933 c-6 -14 -5 -15 5 -6 7 7 10 15 7 18 -3 3 -9 -2 -12 -12z"/>
</g>
</svg>
