<svg width="14" height="18" viewBox="0 0 14 18" fill="none" xmlns="http://www.w3.org/2000/svg"><path fill-rule="evenodd" clip-rule="evenodd" d="M0.500141 8.9307C0.500141 7.94664 0.583338 7.32213 2.63841 5.80087C4.3398 4.54138 9.79333 0.237427 9.79333 0.237427V7.42209H13.9406V17.7627H1.79548C1.08306 17.7627 0.499939 17.1844 0.499939 16.4778L0.500141 8.9307Z" fill="currentColor"/><path fill-rule="evenodd" clip-rule="evenodd" d="M9.79333 7.42209L9.79333 11.585L2.17243 16.7335L11.8077 13.6246V7.42201L9.79333 7.42209Z" fill="black" fill-opacity="0.2"/><path fill-rule="evenodd" clip-rule="evenodd" d="M6.31072 7.20685C6.75641 6.68024 7.40728 6.49437 7.76467 6.79173C8.12206 7.08916 8.05062 7.7572 7.60492 8.28381C7.15957 8.81036 6.50843 8.99603 6.15104 8.6986C5.79365 8.40124 5.86529 7.7334 6.31072 7.20685Z" fill="#231F20"/></svg>