<svg width="19" height="18" viewBox="0 0 19 18" fill="none" xmlns="http://www.w3.org/2000/svg"><path d="M9.49528 0.0992432C10.9056 0.0992432 12.2473 0.422346 13.4514 1.00032C13.6402 1.08551 13.8303 1.18747 14.0185 1.28952L13.1929 2.02083L11.9552 0.74554L9.82253 2.61576L8.56665 1.27231L4.64499 4.75813L7.15577 7.4957L6.17559 8.34566L8.65273 11.0832L7.67246 11.9328L11.2158 15.8267L13.313 13.9222L15.1371 15.9632C14.7756 16.2352 14.38 16.5078 13.9505 16.7455C12.6431 17.4765 11.1292 17.9008 9.51265 17.9008C4.54142 17.9008 0.500057 13.9059 0.500057 8.99239C0.482502 4.1121 4.52458 0.0992432 9.49528 0.0992432ZM7.84382 8.44789L9.99388 6.54342L11.9207 8.66876L9.77018 10.573L7.84382 8.44789ZM9.37504 12.1207L11.5076 10.1994L13.4514 12.3245L11.3012 14.2291L9.37504 12.1207ZM6.31393 4.82638L8.46337 2.92191L10.3897 5.04725L8.23958 6.95163L6.31393 4.82638ZM10.2519 3.80586L11.8516 2.37766L13.2968 3.95903L11.6971 5.40409L10.2519 3.80586ZM13.1074 10.3521L14.7066 8.9238L16.1517 10.5217L14.5519 11.9508L13.1074 10.3521ZM14.5176 13.566L16.1174 12.1375L17.5613 13.7187L15.9622 15.1636L14.5176 13.566ZM15.1713 6.22032L16.2376 5.26804L17.2005 6.32263L16.1344 7.27456L15.1713 6.22032ZM13.7953 3.07472L14.8616 2.10575L15.8252 3.17677L14.7581 4.12896L13.7953 3.07472ZM16.53 9.36618L17.5962 8.41399L18.5766 9.46823L17.4934 10.4202L16.53 9.36618ZM11.7313 7.00266L13.3311 5.57437L14.7756 7.15538L13.1765 8.58393L11.7313 7.00266Z" fill="#3E9CDC"/></svg>