<svg width="11" height="14" viewBox="0 0 11 14" fill="none" xmlns="http://www.w3.org/2000/svg"><path d="M10.8024 9.53564C10.8024 10.186 10.6793 10.7573 10.4332 11.2495C10.1871 11.7417 9.85608 12.1489 9.44006 12.4712C8.94788 12.8579 8.40588 13.1333 7.81409 13.2974C7.22815 13.4614 6.48108 13.5435 5.57288 13.5435H0.334595V0.456543H4.95764C5.91858 0.456543 6.64514 0.494629 7.13733 0.570801C7.63538 0.641113 8.1012 0.793457 8.53479 1.02783C9.00354 1.27979 9.35217 1.6167 9.58069 2.03857C9.81506 2.46045 9.93225 2.94678 9.93225 3.49756C9.93225 4.13623 9.77112 4.70459 9.44885 5.20264C9.13245 5.70068 8.69299 6.06689 8.13049 6.30127V6.37158C8.93909 6.5415 9.58655 6.89014 10.0729 7.41748C10.5592 7.93896 10.8024 8.64502 10.8024 9.53564ZM6.59241 4.15674C6.59241 3.9458 6.53674 3.729 6.42542 3.50635C6.31995 3.28369 6.15295 3.12256 5.92444 3.02295C5.70764 2.9292 5.44983 2.87939 5.151 2.87354C4.85803 2.86182 4.41858 2.85596 3.83264 2.85596H3.60413V5.62451H4.01721C4.57971 5.62451 4.97229 5.61865 5.19495 5.60693C5.42346 5.59521 5.65784 5.53369 5.89807 5.42236C6.16174 5.29932 6.34338 5.12939 6.44299 4.9126C6.5426 4.6958 6.59241 4.44385 6.59241 4.15674ZM7.41858 9.47412C7.41858 9.06982 7.33655 8.75342 7.17249 8.5249C7.00842 8.29639 6.76233 8.12354 6.4342 8.00635C6.23499 7.93018 5.95959 7.88916 5.60803 7.8833C5.26233 7.87158 4.79651 7.86572 4.21057 7.86572H3.60413V11.144H3.77991C4.63538 11.144 5.22717 11.1382 5.5553 11.1265C5.88342 11.1147 6.21741 11.0356 6.55725 10.8892C6.85608 10.7603 7.07288 10.5728 7.20764 10.3267C7.34827 10.0747 7.41858 9.79053 7.41858 9.47412Z" fill="currentColor"/></svg>